<?xml version="1.0" encoding="UTF-8" standalone="no"?>
<!-- Created with Inkscape (http://www.inkscape.org/) -->

<svg
   width="509.25531mm"
   height="534.43994mm"
   viewBox="0 0 509.25531 534.43994"
   version="1.1"
   id="svg1"
   xml:space="preserve"
   xmlns:inkscape="http://www.inkscape.org/namespaces/inkscape"
   xmlns:sodipodi="http://sodipodi.sourceforge.net/DTD/sodipodi-0.dtd"
   xmlns="http://www.w3.org/2000/svg"
   xmlns:svg="http://www.w3.org/2000/svg"><sodipodi:namedview
     id="namedview1"
     pagecolor="#ffffff"
     bordercolor="#000000"
     borderopacity="0.25"
     inkscape:showpageshadow="2"
     inkscape:pageopacity="0.0"
     inkscape:pagecheckerboard="0"
     inkscape:deskcolor="#d1d1d1"
     inkscape:document-units="mm"><inkscape:page
       x="0"
       y="0"
       width="509.25531"
       height="534.43994"
       id="page2"
       margin="0"
       bleed="0" /></sodipodi:namedview><defs
     id="defs1" /><g
     inkscape:label="Capa 1"
     inkscape:groupmode="layer"
     id="layer1"
     transform="translate(342.99849,177.52622)"><g
       transform="matrix(0.03527778,0,0,-0.03527778,-618.82592,635.58727)"
       fill="#000000"
       stroke="none"
       id="g73"><path
         d="m 15527,23016 c -78,-165 -218,-940 -268,-1487 -12,-133 -10,-169 10,-169 17,0 29,65 121,653 50,314 106,662 126,772 19,110 38,215 41,233 7,42 -9,41 -30,-2 z"
         id="path1" /><path
         d="m 13787,22934 c -13,-14 -7,-80 17,-169 95,-353 369,-1130 616,-1745 111,-277 154,-370 171,-370 25,0 8,52 -468,1389 -303,851 -311,875 -311,886 -1,12 -16,18 -25,9 z"
         id="path2" /><path
         d="m 17139,22279 c -90,-63 -1310,-1308 -1362,-1390 -28,-43 -1,-39 60,10 78,63 435,410 649,631 228,235 724,766 724,774 0,14 -31,3 -71,-25 z"
         id="path3" /><path
         d="m 12565,21905 c -14,-13 -25,-33 -25,-44 0,-20 43,-61 65,-61 26,0 58,36 58,65 0,30 -33,65 -60,65 -7,0 -25,-11 -38,-25 z"
         id="path4" /><path
         d="m 10630,21847 c -52,-26 -52,-105 0,-132 39,-20 54,-19 86,8 68,59 -6,166 -86,124 z"
         id="path5" /><path
         d="m 13337,21802 c -23,-25 -22,-85 1,-105 25,-23 85,-22 105,1 23,25 21,78 -3,102 -26,26 -81,26 -103,2 z"
         id="path6" /><path
         d="m 18685,21275 c -33,-32 -34,-93 -2,-122 33,-30 54,-34 92,-19 62,26 74,89 26,137 -38,37 -82,39 -116,4 z"
         id="path7" /><path
         d="m 17322,21177 c -28,-30 -28,-68 1,-95 33,-31 80,-29 106,4 12,15 21,34 21,44 0,10 -9,29 -21,44 -27,34 -77,36 -107,3 z"
         id="path8" /><path
         d="m 19044,20840 c -31,-12 -54,-49 -54,-88 0,-79 102,-113 154,-51 14,17 26,39 26,50 0,32 -26,74 -55,87 -30,14 -42,14 -71,2 z"
         id="path9" /><path
         d="m 10273,20823 c -31,-6 -63,-49 -63,-85 0,-41 40,-78 85,-78 73,0 111,80 63,134 -25,27 -51,35 -85,29 z"
         id="path10" /><path
         d="m 12370,20739 c -95,-11 -259,-53 -311,-79 -57,-29 -158,-133 -213,-217 -25,-39 -70,-123 -100,-185 -30,-62 -95,-198 -144,-303 -104,-218 -188,-427 -297,-741 -42,-120 -117,-334 -167,-474 -147,-412 -378,-1105 -461,-1380 -147,-490 -224,-810 -301,-1255 -81,-465 -95,-622 -77,-830 38,-419 145,-633 456,-913 58,-52 77,-74 69,-82 -8,-8 -8,-31 2,-82 38,-197 40,-430 8,-628 -65,-390 -457,-1538 -839,-2455 -256,-615 -391,-902 -525,-1119 l -73,-118 -81,-39 c -134,-64 -187,-74 -381,-73 -155,1 -190,5 -395,43 -440,81 -614,76 -695,-21 -36,-43 -35,-122 3,-203 88,-185 321,-388 712,-620 343,-203 630,-316 1045,-408 592,-133 1084,-175 1305,-111 183,52 265,193 196,339 -44,96 -131,155 -343,236 -176,66 -339,155 -404,219 -130,129 -179,337 -166,700 11,296 54,547 147,870 74,254 416,1274 498,1485 107,273 355,879 401,977 77,166 270,499 365,632 71,99 185,216 209,216 51,0 219,54 312,100 244,121 592,439 778,710 118,172 602,1160 792,1615 261,626 486,1400 819,2811 90,379 93,422 46,541 -170,424 -777,755 -1537,838 -154,16 -523,19 -653,4 z m 660,-98 c 524,-77 941,-241 1217,-479 73,-63 233,-246 266,-305 29,-50 17,-136 -41,-317 -27,-85 -80,-279 -117,-430 -238,-976 -461,-1764 -612,-2170 -94,-253 -656,-1556 -758,-1761 -120,-238 -331,-478 -637,-723 -226,-182 -359,-249 -583,-297 -87,-19 -283,-16 -389,5 -48,9 -91,14 -94,11 -22,-21 158,-66 289,-73 l 106,-5 -59,-60 c -99,-100 -323,-457 -448,-712 -51,-105 -170,-389 -387,-930 -71,-177 -176,-486 -373,-1095 -201,-621 -238,-759 -281,-1040 -18,-119 -22,-190 -23,-395 -1,-290 11,-369 73,-494 64,-126 121,-193 223,-262 119,-79 162,-100 348,-171 210,-79 270,-122 299,-210 27,-81 -34,-170 -141,-204 -70,-22 -330,-30 -486,-14 -397,39 -926,149 -1221,252 -475,167 -1081,562 -1241,810 -54,83 -66,122 -46,152 25,39 78,51 206,49 110,-1 170,-10 520,-74 165,-31 392,-31 513,-1 48,12 97,27 108,32 10,6 19,8 19,6 0,-3 -36,-55 -80,-117 -44,-61 -80,-119 -80,-130 0,-76 176,80 343,305 74,100 169,261 247,417 240,478 882,2175 1068,2824 114,396 137,525 136,782 l -1,202 40,-35 c 21,-20 56,-43 76,-51 43,-19 139,-20 171,-3 36,19 6,37 -85,50 -52,7 -102,21 -145,43 l -65,32 -17,85 c -10,47 -22,95 -28,108 -9,20 -8,22 15,16 14,-3 25,-2 25,4 0,5 -57,74 -126,153 -219,249 -289,356 -348,534 -47,141 -59,238 -53,445 6,213 29,370 107,736 115,539 280,1124 519,1844 236,710 536,1593 576,1695 63,161 209,456 288,581 125,199 256,356 310,373 28,9 107,21 227,35 93,11 501,-4 630,-23 z"
         id="path11" /><path
         d="m 12446,20351 c -11,-17 4,-35 62,-77 197,-143 577,-295 1004,-403 288,-73 425,-94 603,-95 119,0 158,3 188,16 55,25 46,38 -25,38 -182,0 -387,30 -653,95 -359,87 -608,174 -927,325 -231,110 -244,115 -252,101 z"
         id="path12" /><path
         d="m 12046,20055 c -37,-56 -116,-291 -116,-343 0,-13 6,-22 16,-22 26,0 154,303 154,366 0,32 -32,32 -54,-1 z"
         id="path13" /><path
         d="m 11863,19453 c -39,-88 -137,-366 -168,-476 -21,-72 -25,-101 -17,-109 13,-13 30,23 93,189 36,98 139,426 139,444 0,5 -5,9 -11,9 -5,0 -22,-26 -36,-57 z"
         id="path14" /><path
         d="m 13075,19380 c -37,-41 24,-97 63,-58 18,18 14,56 -7,68 -27,14 -35,13 -56,-10 z"
         id="path15" /><path
         d="m 14208,19383 c -25,-27 -93,-177 -154,-341 -51,-133 -58,-172 -32,-156 13,8 87,166 138,294 70,179 86,246 48,203 z"
         id="path16" /><path
         d="m 12470,18950 c -25,-25 -25,-32 -1,-61 16,-20 23,-22 47,-14 34,12 44,54 19,79 -22,21 -41,20 -65,-4 z"
         id="path17" /><path
         d="m 13672,18897 c -9,-10 -8,-18 2,-32 18,-25 48,-13 44,17 -4,27 -30,35 -46,15 z"
         id="path18" /><path
         d="m 11979,18671 c -42,-5 -105,-18 -140,-29 -35,-11 -102,-30 -147,-42 -266,-66 -320,-196 -127,-302 204,-111 781,-235 1345,-289 180,-17 476,-15 579,4 118,22 204,66 236,121 30,52 31,86 4,143 -77,158 -449,296 -1025,379 -124,18 -602,27 -725,15 z m 316,-46 c 685,-20 1385,-234 1385,-424 0,-34 -56,-79 -128,-102 -183,-58 -693,-23 -1327,93 -456,83 -734,183 -711,256 17,51 170,116 381,162 72,15 150,26 175,24 25,-2 126,-6 225,-9 z"
         id="path19" /><path
         d="m 11345,18013 c -24,-58 -296,-883 -350,-1059 -178,-586 -276,-1023 -306,-1359 -25,-287 25,-539 158,-785 47,-88 70,-120 85,-120 16,0 7,36 -57,229 -35,108 -71,237 -80,286 -21,117 -21,352 0,510 41,307 150,776 330,1410 148,522 194,691 216,799 19,93 21,129 4,89 z"
         id="path20" /><path
         d="m 11721,17903 c -42,-29 -9,-99 40,-86 28,8 44,45 30,70 -14,27 -45,34 -70,16 z"
         id="path21" /><path
         d="m 13710,17785 c -236,-490 -392,-846 -560,-1275 -333,-851 -617,-1383 -893,-1676 -92,-97 -160,-149 -355,-269 -138,-85 -165,-112 -108,-108 36,3 236,99 323,156 141,90 284,249 446,493 232,351 380,654 657,1349 82,204 215,532 298,730 150,361 204,501 242,628 37,120 16,108 -50,-28 z"
         id="path22" /><path
         d="m 13186,17625 c -18,-49 14,-87 55,-65 15,9 19,19 17,43 -3,28 -7,32 -34,35 -22,2 -33,-2 -38,-13 z"
         id="path23" /><path
         d="m 12032,17298 c -18,-18 -14,-73 6,-91 25,-23 58,-21 82,3 41,41 13,100 -46,100 -17,0 -35,-5 -42,-12 z"
         id="path24" /><path
         d="m 13044,17026 c -12,-31 0,-51 31,-51 27,0 30,3 30,30 0,25 -4,30 -28,33 -17,2 -29,-2 -33,-12 z"
         id="path25" /><path
         d="m 11334,16701 c -78,-48 -97,-106 -59,-185 53,-112 169,-118 219,-12 61,129 -48,265 -160,197 z m 108,-38 c 38,-43 28,-126 -19,-163 -63,-49 -154,30 -117,102 36,70 102,99 136,61 z"
         id="path26" /><path
         d="m 12553,16404 c -15,-24 -15,-29 -2,-53 21,-37 77,-37 98,1 12,21 13,31 3,52 -17,37 -74,37 -99,0 z"
         id="path27" /><path
         d="m 12376,15751 c -24,-26 -17,-62 15,-80 24,-13 29,-13 53,2 16,11 26,27 26,42 0,50 -60,73 -94,36 z"
         id="path28" /><path
         d="m 11371,15736 c -16,-19 -10,-66 10,-79 26,-16 68,0 75,30 4,14 2,33 -3,42 -13,21 -66,26 -82,7 z"
         id="path29" /><path
         d="m 11720,15411 c -75,-39 -122,-170 -86,-239 19,-37 70,-77 109,-86 44,-10 102,11 136,49 80,91 57,219 -49,273 -54,27 -66,27 -110,3 z m 90,-46 c 41,-21 60,-53 60,-103 0,-74 -48,-132 -110,-132 -29,0 -77,27 -90,49 -24,46 3,130 56,179 29,26 45,27 84,7 z"
         id="path30" /><path
         d="m 8555,9570 c -10,-17 83,-98 209,-182 159,-105 357,-202 477,-232 120,-31 317,-52 332,-37 19,19 -2,28 -133,61 -233,59 -329,99 -596,253 -120,69 -267,147 -278,147 -3,0 -8,-4 -11,-10 z"
         id="path31" /><path
         d="m 9757,9414 c -21,-22 45,-64 100,-64 34,0 41,29 14,52 -23,17 -100,26 -114,12 z"
         id="path32" /><path
         d="m 10022,8999 c 8,-28 111,-69 198,-79 106,-12 260,-2 267,17 3,8 3,16 0,19 -3,3 -86,14 -184,24 -98,10 -202,22 -232,26 -44,6 -53,4 -49,-7 z"
         id="path33" /><path
         d="m 18202,20688 c -7,-7 -12,-21 -12,-33 0,-12 5,-26 12,-33 7,-7 21,-12 33,-12 12,0 26,5 33,12 7,7 12,21 12,33 0,12 -5,26 -12,33 -7,7 -21,12 -33,12 -12,0 -26,-5 -33,-12 z"
         id="path34" /><path
         d="m 10810,20660 c -23,-42 30,-81 60,-45 10,12 10,21 2,40 -14,30 -47,33 -62,5 z"
         id="path35" /><path
         d="m 18585,20295 c -14,-13 -25,-33 -25,-45 0,-27 43,-70 69,-70 32,0 74,42 74,75 0,60 -74,85 -118,40 z"
         id="path36" /><path
         d="m 16976,20085 c -398,-61 -587,-108 -935,-236 -443,-163 -753,-330 -976,-527 -145,-127 -178,-188 -177,-322 1,-111 17,-170 150,-545 135,-381 219,-648 312,-1000 132,-499 181,-679 230,-845 199,-667 464,-1290 752,-1768 298,-495 718,-982 1016,-1180 181,-120 302,-167 667,-262 266,-69 436,-177 590,-374 125,-161 218,-321 478,-816 301,-576 406,-795 581,-1217 52,-126 124,-298 161,-383 81,-186 243,-622 290,-776 52,-171 77,-318 94,-564 19,-253 33,-394 43,-412 13,-27 37,-22 45,10 13,44 9,429 -6,527 -34,238 -75,375 -199,675 -81,195 -264,662 -362,925 -126,335 -244,586 -591,1250 -382,733 -517,927 -749,1074 -36,22 -69,45 -75,50 -18,18 -283,100 -377,117 -117,20 -187,44 -310,105 -298,145 -606,428 -914,841 -324,434 -554,875 -802,1538 -119,320 -214,620 -372,1170 -164,573 -268,895 -405,1245 -161,412 -177,464 -182,580 -4,97 -3,102 26,151 52,89 257,256 440,358 116,66 272,137 471,216 413,164 587,213 1080,301 350,62 444,57 523,-31 33,-36 143,-216 306,-500 81,-139 589,-1154 750,-1495 311,-658 403,-904 642,-1715 229,-776 244,-850 244,-1200 0,-263 -12,-361 -70,-587 -75,-287 -158,-439 -351,-643 -67,-71 -93,-105 -86,-112 8,-8 26,0 60,25 l 49,35 6,-137 c 16,-357 103,-705 322,-1296 202,-544 299,-769 542,-1255 249,-499 403,-755 653,-1090 239,-320 406,-503 521,-569 76,-44 149,-65 166,-48 22,22 -10,53 -110,104 -76,39 -110,65 -193,148 -133,133 -236,273 -398,545 -404,677 -754,1345 -966,1845 -323,762 -431,1110 -480,1539 -28,244 -28,244 21,291 54,52 147,176 191,256 136,246 228,643 228,989 0,299 -48,537 -225,1115 -279,907 -418,1260 -838,2131 -317,657 -530,1072 -695,1349 -177,297 -215,345 -322,394 -81,37 -264,40 -484,6 z"
         id="path37" /><path
         d="m 9531,20013 c -5,-10 -10,-88 -12,-173 -4,-152 -5,-157 -37,-222 -40,-81 -134,-172 -250,-240 -96,-56 -148,-75 -234,-83 -68,-7 -95,-22 -84,-50 4,-12 25,-15 99,-15 105,0 188,-18 259,-57 135,-74 205,-178 262,-393 21,-77 25,-85 47,-85 23,0 24,3 31,98 17,240 96,363 315,494 139,82 142,83 180,83 22,0 32,4 27,11 -3,6 -15,8 -26,6 -29,-8 -175,30 -231,60 -108,59 -200,205 -252,397 -31,113 -60,186 -74,186 -6,0 -14,-8 -20,-17 z m 63,-267 c 12,-64 75,-174 135,-234 66,-67 137,-106 231,-125 64,-14 65,-14 35,-26 -209,-83 -295,-136 -357,-220 -18,-24 -44,-77 -58,-118 l -26,-73 -27,60 c -57,123 -211,248 -329,266 -42,7 -49,19 -17,29 45,15 200,128 256,189 66,70 108,148 126,232 6,30 14,54 18,54 4,0 10,-15 13,-34 z"
         id="path38" /><path
         d="m 17036,19665 c -380,-190 -942,-395 -1371,-500 -83,-20 -235,-54 -340,-76 -187,-39 -241,-59 -196,-74 49,-15 442,40 642,90 396,100 1010,352 1338,551 117,70 175,113 151,113 -8,0 -109,-47 -224,-104 z"
         id="path39" /><path
         d="m 19574,19606 c -9,-24 4,-48 23,-44 12,2 18,12 18,28 0,29 -32,41 -41,16 z"
         id="path40" /><path
         d="m 17287,19434 c -7,-8 34,-120 113,-304 133,-312 330,-664 330,-592 0,9 -313,675 -401,855 -23,46 -30,53 -42,41 z"
         id="path41" /><path
         d="m 16772,19048 c -16,-16 -15,-53 2,-67 8,-7 27,-11 43,-9 51,6 41,88 -11,88 -12,0 -27,-5 -34,-12 z"
         id="path42" /><path
         d="m 19887,19007 c -8,-7 -27,-46 -42,-87 -60,-169 -121,-241 -270,-316 -69,-36 -97,-55 -101,-72 -10,-38 11,-51 79,-51 110,1 200,-46 263,-137 31,-45 38,-66 43,-121 4,-49 11,-69 24,-77 15,-9 21,-7 33,8 8,11 12,28 9,37 -9,28 25,172 50,209 32,49 95,110 123,121 13,5 51,9 85,9 126,0 142,25 37,59 -145,48 -192,103 -245,289 -35,127 -55,155 -88,129 z m 54,-291 c 14,-38 39,-75 70,-106 l 48,-48 -29,-12 c -37,-15 -102,-85 -130,-140 l -21,-41 -30,40 c -32,45 -98,98 -141,113 -16,6 -28,13 -28,17 0,4 22,23 50,44 56,42 113,110 150,180 20,37 26,44 32,30 3,-10 16,-44 29,-77 z"
         id="path43" /><path
         d="m 15156,18812 c -18,-30 317,-915 379,-999 12,-16 14,-16 20,-2 7,18 -79,266 -201,580 -158,406 -179,451 -198,421 z"
         id="path44" /><path
         d="m 8487,18572 c -10,-10 -17,-28 -17,-39 0,-23 30,-53 53,-53 21,0 57,35 57,55 0,21 -36,55 -58,55 -11,0 -26,-8 -35,-18 z"
         id="path45" /><path
         d="m 16315,18370 c -15,-16 -17,-26 -9,-48 17,-50 94,-39 94,14 0,49 -52,70 -85,34 z"
         id="path46" /><path
         d="m 10065,18310 c -20,-23 -23,-63 -5,-85 31,-37 110,0 110,50 0,49 -71,73 -105,35 z"
         id="path47" /><path
         d="m 17615,18203 c -741,-92 -1757,-417 -1934,-618 -38,-44 -47,-77 -31,-115 41,-100 249,-122 715,-75 283,29 476,60 682,110 533,131 923,378 923,584 0,52 -36,93 -96,110 -36,10 -191,13 -259,4 z m 219,-73 c 58,-13 71,-30 56,-75 -30,-90 -226,-248 -421,-339 -319,-148 -850,-272 -1263,-296 -199,-11 -312,-3 -420,30 -89,28 -98,46 -49,101 112,124 724,333 1428,488 383,84 582,112 669,91 z"
         id="path48" /><path
         d="m 8000,18100 c -41,-41 -10,-110 48,-110 36,0 62,28 62,67 0,57 -69,84 -110,43 z"
         id="path49" /><path
         d="m 9022,18104 c -45,-31 -19,-104 37,-104 55,0 80,61 41,100 -24,24 -48,25 -78,4 z"
         id="path50" /><path
         d="m 8465,17855 c -30,-30 -31,-54 -4,-89 15,-19 30,-26 54,-26 37,0 75,37 75,72 0,27 -45,68 -75,68 -14,0 -37,-11 -50,-25 z"
         id="path51" /><path
         d="m 18161,17816 c -14,-17 3,-65 51,-138 31,-50 58,-62 58,-28 0,25 -77,180 -89,180 -5,0 -14,-6 -20,-14 z"
         id="path52" /><path
         d="m 20927,17662 c -33,-36 -8,-92 40,-92 25,0 53,30 53,57 0,46 -62,69 -93,35 z"
         id="path53" /><path
         d="m 17700,17440 c -25,-25 -25,-42 -2,-63 51,-46 115,19 66,67 -21,21 -40,20 -64,-4 z"
         id="path54" /><path
         d="m 18376,17322 c -8,-13 6,-51 94,-257 145,-340 264,-686 405,-1180 140,-491 178,-700 179,-990 1,-316 -50,-464 -276,-808 -32,-49 -58,-93 -58,-98 0,-42 119,91 216,240 175,273 214,596 133,1091 -73,445 -417,1516 -609,1895 -52,104 -71,128 -84,107 z"
         id="path55" /><path
         d="m 15730,17175 c 0,-47 100,-275 120,-275 18,0 11,28 -41,160 -32,82 -56,130 -65,130 -8,0 -14,-7 -14,-15 z"
         id="path56" /><path
         d="m 16797,17145 c -25,-24 -30,-54 -13,-79 28,-43 86,-38 108,9 23,51 -56,110 -95,70 z"
         id="path57" /><path
         d="m 8926,17089 c -52,-41 -19,-129 49,-129 32,0 64,30 71,67 5,26 1,37 -19,57 -31,31 -65,33 -101,5 z"
         id="path58" /><path
         d="m 20535,17069 c -51,-29 -60,-85 -20,-124 30,-31 66,-32 101,-2 49,43 29,117 -36,131 -14,3 -34,1 -45,-5 z"
         id="path59" /><path
         d="m 17800,16795 c -17,-21 -17,-69 0,-90 21,-25 71,-15 89,17 14,25 14,29 -5,55 -24,32 -65,41 -84,18 z"
         id="path60" /><path
         d="m 14707,16732 c -20,-22 -22,-63 -5,-80 18,-18 63,-14 81,6 20,22 22,63 5,80 -18,18 -63,14 -81,-6 z"
         id="path61" /><path
         d="m 15980,16466 c 0,-81 101,-377 246,-721 321,-765 564,-1165 924,-1525 194,-194 352,-304 569,-395 146,-61 361,-105 361,-73 0,10 -32,23 -102,43 -347,95 -521,196 -753,437 -384,397 -637,836 -1032,1788 -187,451 -195,470 -204,470 -5,0 -9,-11 -9,-24 z"
         id="path62" /><path
         d="m 16698,16478 c -24,-20 -28,-44 -12,-67 17,-23 53,-28 72,-9 19,19 15,66 -7,78 -25,13 -34,13 -53,-2 z"
         id="path63" /><path
         d="m 18065,16206 c -27,-20 -15,-51 20,-51 23,0 31,5 33,22 4,29 -28,47 -53,29 z"
         id="path64" /><path
         d="m 18292,15508 c -20,-20 -14,-72 11,-95 31,-28 55,-35 80,-21 45,23 50,66 12,103 -26,27 -82,34 -103,13 z"
         id="path65" /><path
         d="m 17283,15440 c -44,-18 -56,-73 -23,-108 36,-38 101,-22 111,28 6,30 -11,67 -36,78 -14,7 -27,12 -28,11 -1,0 -12,-4 -24,-9 z"
         id="path66" /><path
         d="m 18247,15039 c -57,-9 -100,-56 -100,-107 0,-67 67,-151 133,-166 37,-9 123,43 144,87 20,44 20,60 0,103 -30,63 -101,97 -177,83 z m 120,-63 c 48,-52 43,-119 -9,-147 -56,-30 -77,-29 -114,3 -70,61 -80,113 -34,160 28,28 36,30 78,25 37,-4 53,-12 79,-41 z"
         id="path67" /><path
         d="m 17744,14676 c -3,-8 -4,-27 -2,-43 2,-22 9,-29 31,-31 16,-2 35,2 43,9 17,14 18,51 2,67 -17,17 -67,15 -74,-2 z"
         id="path68" /><path
         d="m 18725,13548 c -27,-17 -79,-43 -115,-58 -49,-20 -66,-32 -68,-48 -3,-20 1,-22 54,-22 72,0 132,27 179,83 65,76 38,100 -50,45 z"
         id="path69" /><path
         d="m 21635,9664 c -148,-27 -445,-132 -466,-166 -25,-40 48,-34 271,21 210,53 291,65 412,59 146,-7 249,-48 285,-111 59,-105 -96,-328 -392,-566 -429,-345 -1038,-659 -1636,-845 -219,-68 -333,-89 -459,-84 -164,6 -221,48 -206,151 21,141 176,342 451,585 171,151 255,234 249,243 -20,32 -291,-161 -477,-340 -104,-100 -181,-192 -236,-283 -252,-416 113,-549 854,-311 869,279 1802,895 1951,1288 26,69 24,158 -4,212 -35,67 -120,121 -234,148 -79,18 -256,18 -363,-1 z"
         id="path70" /><path
         d="m 21389,9153 c -66,-65 -116,-119 -110,-121 13,-4 116,61 160,102 66,61 110,136 81,136 -6,0 -65,-53 -131,-117 z"
         id="path71" /><path
         d="m 20770,9227 c -53,-28 -59,-41 -26,-62 21,-14 31,-15 61,-5 43,14 65,51 45,75 -17,20 -29,19 -80,-8 z"
         id="path72" /><path
         d="m 20760,8773 c -231,-85 -501,-178 -564,-193 -44,-11 -110,-20 -146,-20 -36,0 -72,-5 -80,-10 -13,-8 -13,-12 3,-27 29,-29 196,-23 312,12 171,50 523,207 518,230 -2,12 -22,16 -43,8 z"
         id="path73" /></g></g></svg>
