<?xml version="1.0" encoding="UTF-8" standalone="no"?>
<!-- Created with Inkscape (http://www.inkscape.org/) -->

<svg
   width="765.96185mm"
   height="392.57477mm"
   viewBox="0 0 765.96185 392.57477"
   version="1.1"
   id="svg1"
   xml:space="preserve"
   xmlns:inkscape="http://www.inkscape.org/namespaces/inkscape"
   xmlns:sodipodi="http://sodipodi.sourceforge.net/DTD/sodipodi-0.dtd"
   xmlns="http://www.w3.org/2000/svg"
   xmlns:svg="http://www.w3.org/2000/svg"><sodipodi:namedview
     id="namedview1"
     pagecolor="#ffffff"
     bordercolor="#000000"
     borderopacity="0.25"
     inkscape:showpageshadow="2"
     inkscape:pageopacity="0.0"
     inkscape:pagecheckerboard="0"
     inkscape:deskcolor="#d1d1d1"
     inkscape:document-units="mm"><inkscape:page
       x="0"
       y="0"
       width="765.96185"
       height="392.57477"
       id="page2"
       margin="0"
       bleed="0" /></sodipodi:namedview><defs
     id="defs1" /><g
     inkscape:label="Capa 1"
     inkscape:groupmode="layer"
     id="layer1"
     transform="translate(687.25176,213.22072)"><g
       transform="matrix(0.03527778,0,0,-0.03527778,-853.78747,551.57814)"
       fill="#000000"
       stroke="none"
       id="g56"><path
         d="m 12299,21664 c -8,-10 -14,-66 -18,-174 -3,-87 -9,-161 -12,-164 -3,-3 -61,-10 -130,-16 -142,-12 -195,-24 -203,-45 -10,-28 33,-37 185,-38 l 149,-2 v -85 c 0,-85 15,-320 25,-415 l 6,-50 -158,-72 c -601,-272 -798,-365 -1112,-519 -194,-96 -361,-174 -370,-174 -29,0 -263,135 -404,233 -76,53 -161,104 -190,114 -140,49 -698,-7 -1215,-122 -312,-69 -811,-211 -929,-265 -90,-41 -127,-73 -275,-239 -145,-162 -202,-238 -253,-336 -57,-109 -42,-155 51,-155 53,0 468,100 1019,245 355,94 707,178 1070,255 212,45 395,89 440,106 13,5 15,-13 15,-130 v -136 l -82,-54 c -198,-128 -240,-230 -121,-290 39,-20 85,-20 138,-1 22,8 45,15 51,15 8,0 13,-205 17,-732 8,-922 22,-1236 73,-1597 26,-182 37,-222 57,-201 14,14 13,116 -8,535 -25,494 -35,930 -34,1495 v 535 l 182,90 c 100,50 499,250 887,446 916,461 1128,563 1163,561 78,-6 189,-55 837,-369 703,-341 903,-445 1535,-798 160,-89 452,-251 650,-360 198,-109 460,-253 582,-321 121,-68 274,-150 340,-182 65,-33 127,-69 137,-81 18,-20 19,-38 12,-473 -3,-249 -9,-495 -13,-545 l -6,-93 -101,8 c -179,13 -628,9 -655,-7 -80,-45 152,-62 529,-38 118,7 219,11 224,9 8,-4 0,-251 -8,-260 -2,-1 -82,2 -177,8 -177,11 -279,5 -286,-17 -3,-7 7,-17 20,-22 41,-16 270,-34 362,-29 l 85,4 v -123 -124 l -57,6 c -87,9 -370,11 -379,3 -18,-19 20,-23 222,-27 l 214,-3 v -131 -130 l -52,7 c -86,11 -363,20 -391,12 -30,-7 -36,-32 -9,-40 31,-10 245,-26 350,-26 56,0 102,-1 103,-2 0,-2 4,-52 8,-111 9,-107 20,-142 41,-121 18,18 31,202 37,537 5,296 8,327 22,321 9,-4 165,-50 346,-102 738,-210 773,-221 3815,-1245 633,-212 704,-235 1515,-472 965,-283 1530,-454 1991,-605 261,-86 651,-207 764,-238 45,-12 63,-12 98,-3 53,15 105,59 131,115 27,55 26,88 -3,135 -22,34 -36,42 -138,80 -650,244 -1577,541 -2683,861 -231,67 -643,189 -915,270 -272,82 -713,212 -980,290 -831,243 -1674,508 -2735,860 -363,120 -768,253 -900,295 -132,41 -258,82 -281,90 l -41,15 -7,433 c -3,237 -9,470 -13,516 l -6,83 22,-12 c 35,-18 104,-17 134,2 86,57 6,211 -139,267 -32,12 -157,79 -278,150 -122,70 -358,205 -526,298 -364,204 -1342,767 -1804,1041 -515,304 -696,406 -901,507 -199,98 -467,213 -560,241 -37,10 -53,19 -48,27 4,6 10,134 13,284 3,150 8,275 11,277 2,3 52,12 109,21 133,19 172,32 168,53 -5,24 -70,34 -180,29 l -98,-5 v 91 c 0,51 -5,125 -10,166 -12,94 -31,121 -61,85 z m 131,-1081 c 95,-38 436,-210 644,-325 100,-55 413,-236 696,-403 517,-303 898,-523 1280,-737 309,-174 1072,-589 1180,-643 133,-66 286,-163 321,-203 22,-25 29,-42 27,-65 -3,-27 -8,-33 -32,-35 -38,-5 -103,21 -201,79 -258,151 -1453,834 -1730,989 -356,198 -673,361 -1310,674 -628,308 -785,377 -915,404 -94,19 -79,23 -330,-88 -727,-322 -1499,-711 -1897,-957 -93,-57 -287,-110 -340,-92 -67,22 -62,71 14,140 62,56 333,219 558,336 116,60 559,283 985,495 426,212 807,404 845,426 80,47 96,48 205,5 z m -2401,-389 c 28,-8 93,-43 144,-78 51,-34 119,-81 152,-103 33,-23 106,-66 163,-96 l 103,-54 -96,-52 c -52,-28 -99,-51 -103,-51 -5,0 -55,37 -112,81 -58,45 -119,88 -137,95 -51,22 -138,17 -294,-17 -197,-41 -300,-61 -614,-114 -148,-25 -340,-60 -425,-76 -342,-67 -989,-223 -1140,-274 -40,-14 -75,-23 -77,-21 -6,6 227,276 267,309 71,60 186,104 525,202 438,126 847,206 1300,254 137,14 286,13 344,-5 z m 94,-315 c 38,-20 208,-152 202,-157 -3,-3 -31,-20 -62,-38 l -57,-32 -83,56 c -45,32 -82,63 -83,70 -1,52 -620,-76 -1320,-273 -340,-96 -1169,-309 -1242,-320 -39,-6 -49,-4 -54,9 -19,51 69,140 178,180 185,69 967,241 1703,376 154,28 370,70 480,94 204,45 299,55 338,35 z m 9,-231 28,-23 -50,-33 -50,-32 v 37 c 0,21 -3,56 -7,77 l -6,40 29,-22 c 16,-11 41,-31 56,-44 z m 6868,-2766 c 190,-66 471,-166 625,-222 691,-251 1677,-567 2750,-880 281,-82 715,-210 965,-285 250,-75 703,-208 1005,-295 704,-203 1893,-565 2235,-680 146,-48 315,-103 375,-120 126,-37 165,-64 165,-115 0,-71 -86,-144 -171,-146 -30,0 -87,15 -184,51 -595,221 -1553,527 -2755,880 -769,226 -726,212 -2450,785 -1897,631 -2040,675 -2855,883 l -230,59 -3,141 -3,141 93,-38 c 51,-21 248,-92 438,-159 z"
         id="path1" /><path
         d="m 9912,20163 c -20,-29 -62,-108 -62,-118 0,-3 6,-5 13,-5 14,0 87,115 87,137 0,21 -17,15 -38,-14 z"
         id="path2" /><path
         d="m 9549,20095 c -25,-57 -46,-152 -35,-162 16,-16 71,98 83,175 9,51 -24,42 -48,-13 z"
         id="path3" /><path
         d="m 9159,20078 c -45,-89 -71,-188 -49,-188 20,0 106,201 94,221 -11,18 -24,8 -45,-33 z"
         id="path4" /><path
         d="m 8866,19968 c -19,-30 -46,-124 -46,-161 0,-47 23,-26 52,49 39,99 35,175 -6,112 z"
         id="path5" /><path
         d="m 8466,19923 c -17,-34 -66,-188 -66,-209 0,-9 7,-14 16,-12 19,4 80,144 90,207 5,34 4,41 -9,41 -9,0 -23,-12 -31,-27 z"
         id="path6" /><path
         d="m 8071,19803 c -24,-48 -56,-161 -48,-170 14,-13 37,23 66,103 17,47 29,90 26,95 -11,17 -25,9 -44,-28 z"
         id="path7" /><path
         d="m 13512,19229 c -178,-4 -330,-10 -339,-13 -13,-5 -14,-9 -4,-19 9,-9 107,-12 394,-12 408,0 557,8 557,30 0,27 -20,28 -608,14 z"
         id="path8" /><path
         d="m 7647,19153 c -2,-5 2,-125 9,-268 7,-144 22,-470 34,-725 19,-435 33,-671 62,-1084 7,-103 8,-171 2,-173 -5,-2 -92,-48 -194,-104 -102,-55 -298,-156 -436,-223 -267,-131 -385,-197 -554,-309 -233,-155 -396,-291 -431,-358 -24,-48 -24,-60 2,-93 17,-22 28,-26 74,-26 29,0 79,8 112,18 l 58,18 v -330 c 0,-182 -4,-659 -9,-1061 -6,-507 -5,-985 3,-1563 7,-458 10,-836 7,-839 -3,-4 -14,1 -24,10 -28,25 -160,83 -232,102 -195,51 -401,-28 -477,-183 -25,-51 -28,-68 -28,-157 v -100 l -64,-32 c -35,-18 -72,-40 -83,-50 -31,-27 -57,-86 -66,-145 l -7,-52 -72,-27 c -92,-36 -144,-69 -180,-115 -25,-34 -28,-45 -28,-116 0,-67 -2,-78 -17,-78 -27,0 -84,-56 -101,-98 -8,-20 -18,-59 -22,-87 -9,-62 -13,-67 -94,-110 -92,-49 -176,-108 -170,-120 2,-5 16,-9 30,-9 43,2 218,84 255,119 33,31 34,35 34,107 0,90 29,157 75,173 21,7 29,7 32,-2 6,-18 42,-16 50,2 3,9 1,39 -5,67 -20,104 21,154 168,203 91,30 110,48 110,101 0,99 42,160 130,189 78,26 90,48 90,172 0,119 14,158 76,213 64,56 138,84 229,88 67,3 100,-2 208,-32 71,-20 136,-40 145,-45 12,-7 17,-23 17,-57 0,-27 5,-49 12,-51 6,-2 30,21 52,51 23,31 56,64 74,73 49,27 163,22 256,-11 106,-37 134,-35 215,19 121,79 182,79 261,1 47,-47 70,-104 81,-201 14,-125 44,-128 160,-15 58,57 100,89 145,109 35,16 90,45 122,64 32,20 76,38 97,42 84,14 244,-51 353,-145 115,-99 163,-173 174,-270 5,-54 3,-63 -22,-99 -28,-41 -50,-114 -41,-138 10,-25 35,-13 65,30 93,135 213,171 342,100 61,-33 100,-75 138,-151 39,-77 55,-89 140,-105 101,-19 122,-38 143,-123 20,-83 41,-104 107,-104 25,-1 66,-5 91,-11 25,-5 128,-14 230,-18 152,-7 195,-12 241,-30 65,-25 169,-96 169,-115 0,-29 -106,-57 -315,-81 -164,-19 -175,-22 -175,-41 0,-15 16,-16 148,-9 245,11 341,29 392,71 48,41 42,83 -18,142 -98,96 -221,142 -376,142 -56,0 -169,7 -253,17 l -151,17 -12,58 c -18,94 -85,146 -210,163 -44,5 -46,7 -83,80 -48,92 -123,164 -205,196 -79,30 -190,31 -251,1 -25,-12 -45,-22 -45,-22 -1,0 -1,33 -1,73 0,92 -32,154 -126,248 -121,119 -264,196 -387,206 -85,7 -131,-6 -217,-60 -39,-24 -92,-57 -120,-72 -27,-16 -75,-53 -106,-82 -31,-29 -58,-53 -61,-53 -3,0 -8,23 -11,51 -8,68 -46,147 -92,194 -101,100 -230,101 -361,1 -56,-43 -77,-44 -175,-10 -76,26 -196,37 -250,22 l -26,-8 -7,838 c -13,1631 -26,2619 -35,2757 -7,104 -6,141 2,144 58,19 916,462 1107,570 190,108 246,136 247,123 2,-9 14,-120 28,-247 26,-230 41,-315 55,-315 24,0 23,26 -35,895 -25,360 -58,885 -90,1405 -23,379 -57,735 -81,853 -5,26 -18,35 -27,20 z m 126,-2350 c 4,-32 9,-88 13,-124 l 6,-66 -104,-50 c -111,-53 -498,-261 -846,-455 -378,-210 -510,-268 -611,-268 -41,0 -51,3 -51,17 0,32 123,138 291,250 234,158 369,237 644,381 250,130 490,267 585,333 30,21 58,38 61,38 4,1 9,-25 12,-56 z"
         id="path9" /><path
         d="m 8822,19130 c -101,-27 -166,-64 -238,-137 -170,-172 -249,-505 -223,-948 5,-88 12,-224 15,-303 4,-85 12,-149 19,-159 11,-14 49,-18 281,-26 350,-11 534,-5 700,26 72,13 136,27 142,31 14,9 16,38 3,51 -5,6 -5,46 -1,95 5,47 9,168 9,270 3,700 -123,1026 -424,1105 -79,20 -194,18 -283,-5 z m 300,-50 c 149,-56 247,-217 293,-478 24,-139 34,-267 45,-579 6,-160 15,-304 19,-321 l 9,-29 -125,-18 c -68,-9 -126,-15 -127,-14 -2,2 1,58 6,124 14,180 13,576 -1,690 -29,239 -85,366 -182,415 -49,26 -92,25 -146,-1 -107,-52 -182,-220 -220,-494 -13,-91 -17,-195 -17,-432 v -313 h -128 -128 v 324 c 0,330 8,470 36,609 58,292 192,478 384,532 76,21 207,14 282,-15 z"
         id="path10" /><path
         d="m 10840,19143 c -25,-2 -139,-10 -253,-19 -210,-15 -237,-19 -237,-35 0,-16 75,-22 209,-16 126,6 376,39 389,52 15,15 -39,24 -108,18 z"
         id="path11" /><path
         d="m 13168,18983 c -16,-2 -28,-8 -28,-12 0,-16 46,-21 205,-21 150,0 201,8 181,27 -8,9 -313,14 -358,6 z"
         id="path12" /><path
         d="m 13890,18974 c -14,-3 -44,-7 -67,-10 -24,-3 -43,-10 -43,-16 0,-12 234,-7 247,6 20,20 -58,31 -137,20 z"
         id="path13" /><path
         d="m 12364,18176 c -278,-64 -479,-339 -551,-756 -13,-75 -17,-164 -17,-420 -1,-179 3,-364 7,-411 l 8,-86 -42,-7 c -63,-10 -74,-20 -103,-91 -47,-117 -30,-181 57,-220 29,-13 81,-28 117,-34 132,-20 596,-34 930,-28 479,9 549,20 593,94 16,28 17,42 9,122 -11,111 -26,135 -100,168 -32,14 -59,27 -61,29 -2,2 2,32 8,67 21,121 43,498 38,637 -14,352 -121,607 -323,774 -75,62 -201,127 -290,151 -85,23 -208,27 -280,11 z m 251,-71 c 193,-41 365,-174 459,-355 111,-215 140,-470 101,-910 -8,-96 -15,-204 -15,-239 v -64 l -37,7 c -21,3 -78,6 -127,6 h -88 l 7,28 c 43,168 63,413 47,573 -15,146 -41,241 -99,358 -57,115 -134,198 -220,239 -52,24 -69,27 -163,27 -97,0 -109,-2 -158,-29 -105,-59 -171,-160 -208,-321 -16,-67 -19,-121 -19,-335 0,-140 2,-325 5,-410 l 5,-155 -124,-8 c -68,-4 -125,-6 -127,-4 -2,2 1,178 6,392 7,320 12,411 29,509 88,502 366,767 726,691 z m 250,-1625 c 425,-11 445,-18 445,-157 0,-60 -4,-76 -23,-98 -22,-27 -23,-27 -242,-37 -128,-6 -427,-7 -714,-4 -457,6 -497,8 -537,26 -52,23 -87,72 -80,113 11,58 49,129 75,140 55,22 565,31 1076,17 z"
         id="path14" /><path
         d="m 9595,16729 c -111,-12 -135,-19 -135,-34 0,-18 130,-20 326,-5 192,15 224,20 224,36 0,12 -30,14 -172,13 -95,-1 -204,-5 -243,-10 z"
         id="path15" /><path
         d="m 16580,16601 c 0,-29 151,-87 430,-166 139,-39 150,-41 150,-21 0,16 -88,52 -329,132 -173,58 -251,75 -251,55 z"
         id="path16" /><path
         d="m 15493,16521 c -62,-6 -83,-15 -69,-28 9,-9 288,-7 323,2 13,3 23,12 23,20 0,12 -19,15 -107,13 -60,0 -136,-4 -170,-7 z"
         id="path17" /><path
         d="m 9788,16441 c -137,-9 -134,-34 7,-45 89,-6 276,9 307,25 10,6 16,14 13,20 -6,9 -179,10 -327,0 z"
         id="path18" /><path
         d="m 17434,16301 c 26,-42 426,-203 836,-335 196,-63 260,-77 260,-56 0,15 -75,50 -310,143 -443,175 -813,292 -786,248 z"
         id="path19" /><path
         d="m 19020,15742 c 0,-21 183,-87 425,-152 148,-40 205,-48 205,-31 0,13 -51,34 -205,84 -238,77 -425,121 -425,99 z"
         id="path20" /><path
         d="m 20066,15451 c -14,-23 172,-103 459,-199 195,-65 226,-73 232,-56 7,20 -405,188 -572,233 -44,13 -87,24 -97,27 -9,3 -19,1 -22,-5 z"
         id="path21" /><path
         d="m 12400,15144 c -238,-36 -415,-105 -615,-239 -204,-137 -343,-276 -480,-480 -191,-284 -361,-762 -420,-1178 -5,-42 -11,-49 -43,-66 -50,-26 -78,-58 -97,-110 -33,-94 -7,-200 61,-241 l 34,-22 v -271 c 0,-535 45,-1382 90,-1717 14,-102 19,-120 30,-120 14,0 12,188 -5,458 -24,378 -55,1159 -55,1399 v 224 l 68,-8 c 109,-13 450,-9 464,5 8,8 9,15 2,22 -5,5 -110,16 -234,24 -296,20 -359,37 -396,108 -21,40 -14,119 13,156 46,63 146,82 440,82 168,0 225,8 170,24 -12,4 -126,10 -253,13 l -231,6 18,99 c 54,301 172,656 296,888 201,375 573,694 950,814 140,44 246,59 408,59 323,0 694,-94 950,-240 253,-144 496,-397 622,-647 111,-221 180,-505 199,-822 l 7,-114 -34,7 c -19,5 -113,7 -209,7 -140,-1 -204,-7 -319,-27 -79,-14 -149,-31 -154,-36 -26,-26 15,-28 173,-10 198,22 419,24 511,5 126,-27 199,-84 199,-155 0,-105 -140,-138 -547,-127 -171,4 -244,3 -249,-5 -21,-34 154,-62 386,-62 265,0 381,30 438,113 20,29 23,44 20,92 -5,66 -37,115 -98,150 -41,24 -50,46 -50,123 0,24 -7,99 -16,167 -67,527 -252,905 -591,1209 -249,225 -597,374 -1004,434 -96,14 -378,19 -449,9 z"
         id="path22" /><path
         d="m 8699,15081 c -100,-55 -163,-175 -189,-361 -14,-95 -3,-362 16,-387 11,-16 29,-18 174,-15 90,2 173,7 185,12 13,5 27,23 33,42 19,59 44,348 40,462 -3,97 -7,118 -31,166 -15,30 -39,64 -54,75 -39,28 -128,31 -174,6 z"
         id="path23" /><path
         d="m 21280,15028 c 21,-22 140,-68 361,-143 194,-66 258,-80 229,-51 -32,32 -467,188 -561,202 -39,6 -42,5 -29,-8 z"
         id="path24" /><path
         d="m 17095,14832 c -72,-34 -129,-116 -159,-227 -24,-91 -39,-285 -31,-402 6,-88 10,-105 26,-114 29,-15 172,-23 282,-14 151,11 142,-10 129,296 -11,257 -24,341 -60,403 -40,67 -116,91 -187,58 z"
         id="path25" /><path
         d="m 7500,14831 c -30,-3 -61,-10 -67,-14 -20,-13 -15,-37 10,-46 37,-14 527,-25 560,-12 64,25 15,44 -163,60 -175,16 -279,20 -340,12 z"
         id="path26" /><path
         d="m 19767,14796 c -64,-14 -83,-27 -74,-50 9,-23 383,-24 413,-1 18,14 18,16 2,29 -18,13 -187,37 -251,35 -18,0 -58,-6 -90,-13 z"
         id="path27" /><path
         d="m 22465,14650 c -12,-19 117,-59 391,-124 214,-50 220,-23 9,43 -151,47 -328,91 -367,91 -15,0 -30,-5 -33,-10 z"
         id="path28" /><path
         d="m 7792,14468 c 7,-19 45,-26 158,-27 122,-1 123,12 1,28 -113,15 -164,14 -159,-1 z"
         id="path29" /><path
         d="m 7315,14441 c -17,-29 16,-36 162,-36 100,0 147,4 150,11 6,19 -23,24 -167,31 -104,4 -139,3 -145,-6 z"
         id="path30" /><path
         d="m 20084,14426 c -4,-9 -4,-19 -1,-22 3,-3 42,-11 86,-16 84,-11 171,-2 178,18 6,19 -26,26 -144,31 -99,5 -113,4 -119,-11 z"
         id="path31" /><path
         d="m 23395,14390 c -9,-15 48,-36 201,-75 153,-39 188,-44 193,-30 4,12 -93,45 -229,80 -138,35 -157,38 -165,25 z"
         id="path32" /><path
         d="m 19600,14373 c -72,-4 -100,-11 -100,-24 0,-14 337,-8 359,5 37,23 -66,30 -259,19 z"
         id="path33" /><path
         d="m 12480,14275 c -248,-47 -479,-171 -612,-329 -208,-247 -290,-720 -274,-1586 17,-956 32,-1310 57,-1335 7,-7 7,169 2,565 -11,813 -9,1412 5,1550 50,467 142,706 330,855 185,148 467,234 727,222 411,-19 660,-208 789,-597 84,-256 103,-519 86,-1195 -8,-286 -11,-673 -8,-930 l 6,-440 -397,-3 c -649,-5 -1244,-31 -1444,-63 -55,-9 -73,-17 -98,-42 -36,-38 -145,-197 -153,-225 -6,-18 -21,-20 -249,-27 -309,-9 -1031,-50 -1046,-59 -33,-21 20,-26 252,-26 456,0 1733,48 2947,110 316,16 697,34 845,40 337,13 423,23 556,66 135,43 163,43 226,0 71,-49 83,-50 152,-21 33,14 70,25 82,25 13,0 60,-19 107,-42 84,-42 85,-42 191,-41 l 106,1 28,-34 c 16,-19 46,-44 68,-54 51,-27 181,-57 299,-69 160,-17 734,-34 930,-27 314,11 721,60 855,103 54,17 167,76 190,100 43,43 -41,42 -149,-1 -38,-15 -100,-34 -140,-42 -176,-37 -541,-78 -796,-89 -178,-8 -747,11 -891,30 -114,15 -256,57 -295,87 -31,25 -30,44 5,99 40,62 97,113 161,145 46,23 70,28 150,31 111,3 121,10 164,115 33,80 81,128 129,129 18,0 56,0 85,-1 89,-3 132,45 132,147 0,192 74,325 216,390 74,34 163,36 202,5 64,-52 73,-56 100,-46 27,9 35,22 95,151 61,131 180,244 332,318 119,58 187,75 320,82 191,9 336,-39 435,-143 63,-67 89,-123 97,-211 11,-130 37,-135 150,-32 137,126 262,197 391,220 58,11 72,9 203,-23 l 86,-22 101,23 c 131,30 178,21 253,-46 88,-80 115,-168 98,-319 -18,-164 7,-187 181,-159 139,22 211,17 281,-21 115,-63 149,-180 117,-400 -20,-141 4,-167 167,-179 113,-8 156,-22 180,-58 24,-37 54,-54 147,-81 118,-34 143,-45 132,-56 -36,-36 -341,-75 -854,-110 -524,-36 -739,-61 -748,-87 -5,-17 42,-17 343,2 132,8 373,21 535,30 470,25 598,38 710,75 44,14 104,19 305,24 138,3 347,13 465,21 118,8 420,19 670,25 250,6 466,13 479,16 96,21 -157,43 -494,44 -105,0 -285,-5 -399,-11 -114,-6 -210,-8 -213,-5 -8,8 27,116 62,192 33,72 97,154 120,154 7,0 18,-7 25,-15 14,-17 60,-20 60,-4 0,5 -18,40 -40,76 -49,82 -52,121 -11,184 31,49 84,96 171,152 76,48 106,83 129,149 27,78 36,93 75,123 55,42 138,65 289,81 171,17 236,35 281,75 43,38 54,71 65,196 5,55 15,111 21,124 50,98 146,124 349,97 126,-16 147,-10 237,73 41,39 92,78 112,87 58,25 180,20 277,-12 110,-36 162,-34 259,8 144,63 289,71 459,25 66,-18 89,-30 126,-65 25,-23 71,-62 101,-86 74,-59 96,-96 117,-190 20,-93 45,-114 65,-55 2,4 73,1 158,-8 219,-22 282,-56 326,-176 12,-34 15,-66 10,-145 -7,-131 2,-145 107,-169 39,-9 95,-27 124,-40 70,-31 86,-64 78,-153 -3,-37 -2,-72 2,-78 4,-6 27,-21 49,-32 70,-36 119,-108 163,-244 36,-109 58,-128 198,-173 43,-13 87,-31 97,-38 18,-13 16,-15 -30,-33 -38,-15 -75,-19 -172,-19 -110,0 -122,-2 -122,-18 0,-29 48,-41 175,-41 171,-1 248,32 248,106 0,47 -44,80 -156,117 -52,18 -102,40 -110,49 -9,10 -30,58 -47,107 -18,50 -41,106 -53,125 -27,46 -84,106 -126,132 -29,18 -32,25 -28,52 7,47 -17,123 -49,157 -47,50 -96,70 -245,103 l -27,6 2,113 c 1,111 0,115 -34,183 -25,49 -49,79 -84,105 -77,58 -138,73 -301,74 -81,0 -143,4 -147,10 -4,6 -8,21 -8,35 -1,62 -73,149 -171,204 l -40,23 -4,144 c -2,79 -6,320 -10,534 -7,473 -24,772 -46,806 -6,10 -11,11 -19,3 -11,-11 -2,-589 19,-1209 4,-126 7,-232 5,-234 -2,-2 -18,6 -36,17 -18,11 -69,33 -113,48 -74,26 -91,28 -235,28 -149,0 -158,-1 -245,-32 l -89,-32 -91,27 c -76,24 -108,28 -205,28 -140,0 -175,-14 -282,-112 l -71,-66 -96,9 c -205,19 -300,4 -374,-57 -21,-17 -46,-48 -57,-69 -21,-41 -40,-140 -40,-208 0,-57 -24,-100 -65,-118 -19,-8 -105,-23 -192,-34 -290,-37 -384,-89 -443,-248 -26,-70 -35,-80 -136,-152 -186,-135 -241,-247 -180,-363 l 24,-45 -23,-6 c -12,-3 -48,-33 -78,-66 -64,-69 -96,-142 -104,-241 l -6,-66 -231,-12 c -127,-6 -275,-14 -328,-17 l -98,-7 v 25 c 0,49 -59,83 -195,113 -70,15 -86,23 -128,62 -59,55 -97,71 -189,79 -40,4 -84,11 -97,16 -26,9 -26,5 -2,181 25,188 -56,349 -205,407 -71,28 -205,31 -321,7 -40,-8 -74,-12 -74,-8 -1,3 -2,71 -3,151 -1,135 -3,149 -28,202 -33,71 -106,146 -173,177 -63,31 -150,33 -257,6 -75,-18 -80,-18 -154,-1 -86,21 -197,23 -269,5 -109,-26 -237,-96 -347,-191 -31,-26 -58,-48 -61,-48 -2,0 -7,20 -10,45 -22,157 -169,298 -368,352 -91,25 -289,24 -389,-1 -267,-68 -475,-226 -573,-436 -17,-36 -31,-66 -32,-68 -2,-2 -22,7 -46,20 -34,18 -60,23 -114,23 -89,-1 -158,-24 -235,-81 -118,-86 -165,-186 -178,-370 l -7,-109 -81,-1 c -139,-3 -191,-39 -254,-177 -30,-66 -31,-67 -68,-67 -66,0 -154,-21 -212,-50 -106,-54 -204,-164 -217,-246 l -6,-37 -88,6 c -105,8 -147,21 -218,70 -62,43 -110,48 -197,20 l -53,-16 -53,36 c -78,53 -112,55 -247,13 -125,-40 -204,-54 -329,-58 l -83,-3 5,35 c 3,19 11,139 16,265 6,127 17,370 25,540 9,171 18,508 22,749 6,415 5,439 -11,433 -10,-4 -26,-7 -37,-7 -18,0 -19,-9 -19,-142 0,-213 -17,-709 -41,-1193 -11,-236 -19,-487 -17,-556 l 3,-126 -210,-7 c -115,-4 -238,-9 -271,-13 -57,-5 -62,-4 -69,15 -8,27 -66,112 -118,175 l -39,47 11,163 c 6,89 16,475 22,857 16,885 4,1161 -62,1443 -97,413 -299,651 -630,743 -80,22 -119,27 -259,30 -115,2 -188,-1 -240,-11 z m 1175,-3342 c 33,-47 66,-94 73,-103 12,-17 9,-19 -50,-24 -141,-13 -1387,-72 -1945,-92 l -192,-7 84,128 85,127 137,-1 c 76,-1 250,5 388,14 137,8 454,19 705,25 250,6 473,12 495,14 22,1 67,3 100,4 l 60,1 z"
         id="path34" /><path
         d="m 7660,14221 c -25,-3 -43,-10 -40,-16 7,-14 386,-13 400,1 18,18 -254,29 -360,15 z"
         id="path35" /><path
         d="m 12498,14160 c -191,-32 -368,-137 -473,-279 -164,-224 -266,-644 -305,-1251 -19,-301 -32,-1016 -21,-1172 11,-148 26,-244 41,-253 4,-2 11,218 15,490 l 7,495 h 33 c 31,0 33,-2 39,-46 3,-26 6,-63 6,-83 0,-20 3,-47 7,-59 12,-45 23,1 23,96 v 92 h 30 30 v -136 c 0,-74 -5,-144 -10,-155 -9,-16 -22,-19 -75,-19 -41,0 -65,-4 -65,-11 0,-8 23,-10 70,-7 l 70,4 2,-113 c 4,-219 5,-207 -17,-211 -11,-1 -31,-6 -45,-9 -21,-6 -18,-8 20,-12 l 45,-6 5,-92 c 7,-123 20,-130 20,-10 v 97 h 84 85 l 4,-47 3,-48 2,46 2,47 65,7 c 100,10 101,10 111,-98 l 9,-92 5,94 5,95 65,-3 c 36,-1 66,-4 68,-5 1,-2 7,-40 12,-85 10,-90 17,-111 31,-90 5,8 6,51 3,97 l -7,82 h 95 95 l 7,-52 c 11,-90 18,-118 27,-118 5,0 9,38 9,85 v 85 h 69 68 l 11,-111 c 6,-60 14,-115 18,-121 16,-25 23,24 17,123 l -6,107 86,7 c 47,4 90,4 96,1 6,-4 11,-28 12,-54 0,-26 4,-67 8,-92 7,-38 9,-29 10,55 2,101 0,329 -2,375 -2,24 1,25 43,22 24,-2 47,-5 50,-8 3,-3 8,-47 11,-97 l 5,-92 2,98 2,97 h 79 79 l 6,-112 c 3,-62 7,-197 9,-301 4,-187 4,-187 -17,-180 -31,11 -691,7 -996,-6 -419,-18 -630,-35 -630,-50 0,-8 1402,-2 1550,7 l 114,7 8,35 c 11,54 31,1354 24,1625 -13,521 -62,757 -202,973 -121,185 -290,302 -493,338 -83,15 -189,16 -263,4 z m 253,-57 c 3,-5 4,-81 1,-170 l -5,-163 h -58 -59 v 63 c 0,105 -12,247 -21,247 -5,0 -9,-69 -9,-154 v -153 l -52,-7 c -29,-3 -67,-6 -84,-6 h -31 l -7,123 c -5,105 -19,193 -27,177 -1,-3 -5,-72 -8,-155 l -6,-150 -57,-3 -58,-3 v 49 c 0,83 -12,202 -21,202 -5,0 -10,-57 -11,-127 l -3,-128 -52,-3 -52,-3 -7,61 c -9,85 -24,85 -24,1 v -71 l -42,-2 -43,-1 42,-4 41,-4 7,-92 c 3,-51 5,-132 3,-182 l -3,-90 -67,-3 -68,-3 -1,43 c 0,33 -2,38 -9,23 -5,-11 -9,-32 -9,-47 -1,-24 -5,-27 -41,-30 -52,-4 -52,-22 0,-26 l 41,-3 -3,-142 -3,-142 -38,-6 c -55,-9 -57,-19 -4,-19 h 47 v -141 c 0,-91 4,-138 10,-134 6,3 10,48 10,99 0,51 3,114 6,140 l 7,46 h 63 64 v -160 c 0,-88 -4,-160 -8,-160 -4,0 -62,-7 -127,-15 -66,-8 -123,-15 -127,-15 -5,0 -8,11 -8,24 0,41 -18,39 -21,-2 -2,-20 -1,-131 3,-247 3,-115 4,-213 2,-217 -3,-5 -19,-8 -36,-8 h -31 l 7,288 c 11,474 48,748 137,1029 45,141 66,183 91,183 20,0 20,1 5,13 -16,11 -13,19 31,87 27,41 76,100 109,130 60,56 208,140 245,140 11,0 28,5 39,10 48,26 309,36 330,13 z m 141,-38 c 168,-68 320,-233 403,-440 29,-72 66,-234 58,-248 -3,-5 -20,-6 -39,-3 -18,4 -82,7 -143,7 h -110 l -5,42 c -3,23 -8,89 -11,147 -17,326 -35,337 -27,18 l 5,-208 h -101 -100 l -6,113 c -13,259 -14,255 9,261 11,3 41,6 67,6 26,0 50,5 53,10 4,6 -21,10 -68,10 h -74 l -8,147 c -4,80 -9,152 -12,160 -7,17 26,11 109,-22 z m -138,-407 c 3,-50 6,-133 6,-183 v -92 l -37,-7 c -71,-11 -71,-12 -77,57 -3,34 -7,117 -8,184 l -3,122 25,4 c 14,2 39,5 56,6 l 31,1 z m -154,-253 -1,-335 h -79 -80 v 293 c 0,160 -3,309 -6,329 -6,34 -5,37 22,41 16,2 55,5 86,6 l 58,1 z m -212,-7 -3,-333 -52,-3 -53,-3 v 140 139 l 28,10 27,10 -26,1 -27,1 -7,174 c -4,96 -4,179 -1,185 4,6 32,11 62,11 h 54 z m -152,230 c -3,-50 -6,-131 -6,-180 v -88 h -45 -45 v 58 c 0,33 -3,114 -7,180 l -6,122 h 58 58 z m 1128,-300 c 24,-136 30,-333 28,-887 -1,-326 -3,-595 -4,-596 -2,-1 -37,1 -78,4 l -75,6 -2,215 c -2,251 -11,389 -24,369 -5,-8 -9,-60 -9,-116 v -103 h -44 c -25,0 -47,3 -50,8 -2,4 -8,114 -12,243 l -7,236 59,9 59,8 -60,6 -60,5 -6,145 c -3,80 -4,148 -2,153 2,4 53,7 114,7 60,0 109,4 109,9 0,15 -40,21 -137,21 h -93 v 43 c 0,23 -3,86 -7,139 l -6,97 h 123 c 68,0 125,3 128,6 3,3 15,5 28,5 17,0 23,-7 28,-32 z m -604,-15 c 0,-21 3,-82 7,-135 l 6,-98 h -55 -55 l -7,46 c -3,26 -6,84 -6,130 0,91 -1,91 73,93 36,1 37,0 37,-36 z m 263,-30 c 4,-38 7,-100 7,-138 v -71 l -97,4 c -54,2 -99,5 -99,6 -1,0 -4,61 -7,134 l -6,132 h 98 98 z m -793,-78 c 0,-74 1,-138 3,-142 1,-5 -19,-9 -45,-11 l -48,-3 v 140 140 l 38,4 c 20,2 40,4 45,5 4,1 7,-59 7,-133 z m -120,-20 c 0,-100 -3,-137 -12,-140 -7,-2 -37,-6 -65,-10 l -53,-6 v 146 145 h 65 65 z m 664,-227 c 3,-40 7,-107 8,-149 l 3,-77 -55,-5 c -30,-2 -56,-4 -57,-3 -1,1 -5,70 -9,154 l -7,152 h 56 55 z m 260,11 c 3,-34 6,-102 6,-150 v -89 h -94 -93 l -7,61 c -3,34 -6,102 -6,150 v 89 h 94 93 z m -644,-104 v -155 h -34 c -19,0 -41,-2 -49,-6 -12,-4 -15,20 -21,145 -4,83 -5,155 -1,161 3,5 28,10 56,10 h 49 z m 215,9 c 4,-80 6,-147 4,-148 -2,-2 -39,-6 -81,-8 l -78,-5 v 154 153 h 74 74 z m -365,-19 v -155 h -27 c -16,0 -38,-3 -50,-6 l -23,-6 v 161 161 h 50 50 z m 804,-187 c 3,-24 8,-134 12,-245 l 6,-203 -73,-2 -74,-2 72,-3 72,-4 5,-52 c 9,-93 15,-287 8,-291 -4,-2 -46,-2 -94,1 l -87,6 -5,36 c -3,20 -8,104 -11,188 -3,83 -10,240 -15,350 -5,109 -10,210 -10,225 0,27 1,27 78,31 42,1 85,4 94,5 13,2 18,-8 22,-40 z m -254,-15 c 0,-21 9,-191 20,-378 11,-187 20,-355 20,-373 v -33 l -62,3 -63,3 -11,240 c -6,132 -14,315 -18,408 l -6,167 h 60 60 z m -176,-120 c 11,-234 25,-501 32,-585 l 7,-78 h -85 -85 l -6,113 c -4,61 -7,138 -7,170 v 57 h 33 c 17,0 43,3 55,7 36,9 6,23 -50,23 h -48 v 113 c 0,63 -3,162 -7,220 l -6,107 h 80 81 z m -221,90 c 4,-27 7,-124 8,-218 l 2,-170 -50,-3 -50,-3 -6,107 c -4,59 -7,158 -7,221 v 113 h 49 48 z m -289,-181 c -4,-132 -11,-210 -18,-214 -6,-4 -35,-8 -63,-8 h -53 l -1,63 c 0,34 -4,71 -9,82 -6,17 -9,15 -14,-15 -3,-19 -7,-55 -8,-80 -3,-44 -4,-45 -40,-48 l -38,-3 v 68 c 0,37 -3,132 -7,209 l -6,142 124,9 c 68,5 128,7 132,5 4,-2 5,-97 1,-210 z m 139,171 c 4,-27 7,-122 8,-213 l 1,-165 -61,-3 -61,-3 v 209 c 0,115 3,212 7,215 3,4 28,7 53,7 h 47 z m 961,-449 c 3,-26 6,-105 6,-175 v -129 h -49 -49 l -4,168 c -3,92 -3,170 -1,175 2,4 24,7 47,7 h 43 z m -937,-204 c 6,-129 14,-271 18,-316 l 7,-81 -54,-6 c -29,-4 -65,-7 -79,-7 h -26 l -8,198 c -4,110 -4,253 0,320 l 8,121 46,4 c 25,2 53,3 61,3 13,-1 17,-40 27,-236 z m 150,83 c 5,-87 8,-161 6,-165 -2,-5 -27,-8 -54,-8 -31,0 -48,-4 -44,-10 3,-5 28,-10 54,-10 h 48 l 6,-52 c 4,-29 9,-95 13,-145 l 7,-93 h -65 -66 l -6,83 c -3,45 -9,189 -12,320 l -7,237 h 55 55 z m -314,-170 c 4,-174 6,-317 4,-319 -1,-1 -36,-4 -77,-5 -71,-2 -75,-1 -74,19 0,12 1,85 2,162 l 2,140 h 26 c 14,0 23,4 19,10 -3,6 -16,10 -27,10 -20,0 -21,4 -14,77 3,42 6,109 6,150 v 73 h 63 64 z m 544,-35 c 9,-12 39,-277 31,-281 -1,-1 -42,-1 -89,1 l -87,3 -6,42 c -4,35 -10,216 -7,240 2,13 148,8 158,-5 z m 197,-75 c 3,-43 9,-108 12,-145 l 7,-68 h -66 c -36,0 -68,3 -70,8 -3,4 -8,69 -12,145 l -8,137 h 65 65 z m 233,63 c 1,-1 6,-64 10,-140 7,-110 6,-139 -5,-143 -7,-3 -51,-2 -97,2 l -85,7 v 52 c 0,29 -3,94 -6,143 l -7,91 94,-5 c 52,-3 95,-6 96,-7 z"
         id="path36" /><path
         d="m 24245,14137 c -10,-8 -15,-19 -11,-25 11,-19 105,-42 192,-49 132,-9 118,29 -21,60 -117,26 -140,28 -160,14 z"
         id="path37" /><path
         d="m 19960,14090 c -129,-9 -170,-17 -170,-36 0,-18 105,-19 322,-3 156,11 204,21 193,39 -7,11 -179,11 -345,0 z"
         id="path38" /><path
         d="m 22019,13497 c -107,-30 -199,-112 -251,-223 -35,-76 -73,-252 -87,-414 -19,-201 -9,-641 14,-703 14,-35 46,-40 340,-49 307,-9 427,-5 449,17 23,23 28,109 29,445 1,346 -9,469 -53,629 -56,202 -159,299 -325,307 -38,2 -91,-2 -116,-9 z"
         id="path39" /><path
         d="m 15195,13223 c -64,-5 -380,-50 -445,-64 -85,-18 -61,-33 43,-25 170,12 572,58 581,66 28,27 -25,34 -179,23 z"
         id="path40" /><path
         d="m 15420,12860 c -133,-8 -391,-35 -437,-46 -26,-7 -30,-19 -8,-28 27,-10 474,21 618,44 68,11 85,19 66,31 -15,10 -41,9 -239,-1 z"
         id="path41" /><path
         d="m 10455,12829 c -77,-10 -214,-23 -303,-28 -90,-5 -167,-12 -170,-15 -3,-4 -1,-11 5,-17 19,-19 360,-16 493,5 161,24 192,33 188,54 -4,23 -45,24 -213,1 z"
         id="path42" /><path
         d="m 7782,12414 c -30,-7 -23,-26 14,-37 16,-4 135,-11 265,-14 296,-7 373,2 307,38 -23,12 -538,23 -586,13 z"
         id="path43" /><path
         d="m 8614,12359 c -3,-6 -2,-15 3,-20 15,-15 120,-29 213,-29 89,0 124,10 104,30 -25,25 -306,42 -320,19 z"
         id="path44" /><path
         d="m 8415,12064 c -99,-12 -165,-27 -165,-39 0,-7 7,-16 16,-19 41,-16 486,0 537,19 27,11 20,32 -14,39 -32,6 -318,6 -374,0 z"
         id="path45" /><path
         d="m 23530,11800 c -13,-24 -3,-107 13,-117 26,-16 49,74 31,121 -9,22 -31,20 -44,-4 z"
         id="path46" /><path
         d="m 23370,11726 c 0,-37 36,-76 71,-76 37,0 32,37 -14,88 -32,34 -57,29 -57,-12 z"
         id="path47" /><path
         d="m 15895,11709 c -249,-12 -355,-22 -358,-34 -3,-14 317,-18 526,-6 157,8 203,18 183,38 -11,11 -145,12 -351,2 z"
         id="path48" /><path
         d="m 24098,11599 c -9,-5 -22,-25 -28,-45 -10,-30 -10,-39 4,-52 14,-14 17,-14 37,4 29,26 41,52 34,73 -7,24 -26,32 -47,20 z"
         id="path49" /><path
         d="m 24192,11549 c -30,-29 -43,-69 -23,-69 4,0 23,10 42,23 23,15 34,31 34,47 0,34 -17,34 -53,-1 z"
         id="path50" /><path
         d="m 22799,11214 -49,-47 -68,11 c -114,19 -211,-18 -251,-96 -11,-21 -31,-43 -45,-50 -33,-15 -33,-25 0,-51 32,-25 74,-27 115,-5 l 30,15 -27,22 -27,21 38,33 c 45,39 90,49 150,34 86,-22 111,-16 169,39 29,28 62,50 73,50 60,0 203,-142 261,-259 23,-47 47,-81 63,-90 25,-14 31,-13 79,12 28,15 58,27 65,27 7,0 37,-25 66,-55 69,-72 108,-84 199,-60 157,42 149,41 272,7 247,-68 441,-69 773,-1 93,19 148,22 350,24 258,3 314,10 473,56 64,19 118,29 145,27 36,-3 42,0 45,18 2,11 -7,29 -18,39 -31,28 -111,23 -245,-16 -108,-31 -116,-32 -395,-39 -234,-6 -307,-12 -410,-31 -107,-21 -155,-24 -335,-23 -204,0 -213,1 -328,32 -138,37 -206,40 -297,12 -95,-29 -120,-27 -161,16 -41,43 -98,74 -136,74 -15,0 -46,-9 -69,-19 l -40,-18 -30,56 c -36,70 -173,214 -239,252 -36,21 -64,29 -98,29 -43,0 -53,-4 -98,-46 z"
         id="path51" /><path
         d="m 7875,11054 c -16,-8 -64,-41 -105,-73 -99,-76 -92,-73 -175,-81 -60,-6 -82,-13 -128,-44 -50,-34 -66,-38 -149,-46 -66,-6 -116,-18 -168,-40 -41,-16 -76,-30 -77,-30 -2,0 -3,-7 -3,-16 0,-18 -2,-18 185,6 50,6 109,14 132,16 30,4 60,18 102,50 57,43 61,44 131,44 83,0 87,2 203,87 48,36 93,63 100,60 7,-2 20,-28 31,-56 23,-65 52,-101 80,-101 13,0 44,9 69,20 53,23 65,20 128,-32 71,-59 120,-52 234,32 108,80 94,89 -50,34 l -94,-36 -43,35 c -24,19 -53,39 -65,46 -30,15 -103,13 -133,-4 -14,-8 -28,-14 -31,-15 -3,0 -18,29 -34,65 -39,93 -75,113 -140,79 z"
         id="path52" /><path
         d="m 5805,10991 c -22,-10 -71,-44 -110,-76 -95,-78 -135,-99 -240,-130 -49,-14 -94,-30 -99,-35 -30,-30 128,-23 215,9 31,12 101,55 155,96 143,109 175,110 280,15 87,-79 119,-88 224,-61 108,28 123,27 189,-19 46,-33 65,-40 101,-40 52,1 128,14 138,25 13,13 -31,34 -87,41 -41,4 -70,16 -110,43 -107,73 -112,73 -228,36 -43,-14 -88,-25 -100,-25 -13,0 -46,22 -80,54 -32,29 -72,61 -90,70 -42,21 -108,20 -158,-3 z"
         id="path53" /><path
         d="m 18320,10759 c -19,-17 -90,-58 -157,-91 -68,-33 -123,-64 -123,-70 0,-18 92,-3 153,26 71,34 146,93 170,135 24,41 4,41 -43,0 z"
         id="path54" /><path
         d="m 8705,10723 c -53,-6 -179,-35 -197,-44 -10,-6 -18,-15 -18,-21 0,-8 23,-9 78,-5 102,9 352,57 352,68 0,9 -152,10 -215,2 z"
         id="path55" /><path
         d="m 18482,10590 c -102,-3 -173,-9 -174,-15 -1,-5 11,-13 28,-16 48,-11 293,-10 431,1 147,12 173,17 173,30 0,10 -135,10 -458,0 z"
         id="path56" /></g></g></svg>
