<?xml version="1.0" encoding="UTF-8" standalone="no"?>
<!-- Created with Inkscape (http://www.inkscape.org/) -->

<svg
   width="613.35382mm"
   height="624.73682mm"
   viewBox="0 0 613.35382 624.73682"
   version="1.1"
   id="svg1"
   xml:space="preserve"
   xmlns:inkscape="http://www.inkscape.org/namespaces/inkscape"
   xmlns:sodipodi="http://sodipodi.sourceforge.net/DTD/sodipodi-0.dtd"
   xmlns="http://www.w3.org/2000/svg"
   xmlns:svg="http://www.w3.org/2000/svg"><sodipodi:namedview
     id="namedview1"
     pagecolor="#ffffff"
     bordercolor="#000000"
     borderopacity="0.25"
     inkscape:showpageshadow="2"
     inkscape:pageopacity="0.0"
     inkscape:pagecheckerboard="0"
     inkscape:deskcolor="#d1d1d1"
     inkscape:document-units="mm"><inkscape:page
       x="0"
       y="0"
       width="613.35382"
       height="624.73682"
       id="page2"
       margin="0"
       bleed="0" /></sodipodi:namedview><defs
     id="defs1" /><g
     inkscape:label="Capa 1"
     inkscape:groupmode="layer"
     id="layer1"
     transform="translate(610.94776,328.24341)"><g
       transform="matrix(0.03527778,0,0,-0.03527778,-786.98388,541.31395)"
       fill="#FFFFFF"
       stroke="none"
       id="g38"><path
         d="m 16875,24640 c -4,-7 -9,-80 -10,-164 -4,-214 -41,-342 -136,-469 -81,-108 -182,-172 -448,-282 -126,-52 -160,-76 -131,-96 8,-5 25,-8 38,-6 12,3 24,1 27,-3 2,-4 26,-5 53,-2 105,10 265,-63 380,-172 114,-108 162,-190 258,-443 69,-183 89,-188 97,-26 9,196 69,317 240,479 113,107 212,168 315,194 112,28 184,59 180,79 -4,18 -4,18 -168,6 -239,-16 -431,76 -515,248 -54,111 -68,184 -103,517 -5,47 -15,99 -23,115 -15,31 -42,44 -54,25 z m 52,-595 c 16,-74 63,-170 113,-227 50,-58 143,-121 212,-143 29,-10 57,-21 61,-25 5,-4 -13,-20 -38,-35 -116,-67 -273,-253 -310,-365 l -17,-52 -37,74 c -90,183 -241,321 -414,382 l -65,23 84,38 c 168,75 290,185 357,322 17,34 34,63 37,63 3,0 11,-25 17,-55 z"
         id="path1" /><path
         d="m 19195,23087 c -65,-30 -79,-122 -26,-169 98,-88 232,45 144,142 -33,35 -76,45 -118,27 z"
         id="path2" /><path
         d="m 11382,22809 c -174,-29 -352,-123 -506,-266 -55,-52 -73,-93 -40,-93 9,0 71,31 138,69 233,132 353,171 521,171 293,0 690,-199 906,-453 78,-92 206,-285 404,-612 794,-1305 1001,-1695 1110,-2090 20,-71 44,-153 54,-181 l 18,-51 -43,-27 c -64,-40 -145,-133 -187,-214 -36,-69 -87,-237 -87,-288 0,-13 -5,-24 -11,-24 -31,0 -236,77 -337,127 -303,150 -476,297 -1035,882 -590,617 -879,846 -1207,955 -151,51 -275,69 -470,69 -255,0 -410,-35 -548,-125 -111,-72 -209,-210 -215,-302 -3,-60 18,-54 55,16 70,133 198,238 342,284 198,62 589,43 811,-41 90,-33 221,-101 305,-158 211,-141 344,-260 865,-777 253,-250 521,-506 595,-568 248,-208 509,-364 757,-454 51,-18 93,-36 93,-39 0,-3 -45,-9 -99,-13 -55,-3 -259,-24 -453,-46 -662,-74 -895,-77 -1303,-19 -598,85 -1063,237 -1551,508 -704,390 -869,676 -793,1371 27,242 98,492 194,680 90,175 192,311 450,599 238,266 465,526 465,533 0,28 -146,-73 -280,-195 -150,-135 -392,-385 -503,-517 -209,-250 -323,-471 -396,-770 -55,-227 -66,-330 -65,-600 0,-232 1,-250 26,-342 80,-293 251,-497 607,-723 l 91,-58 -82,-50 c -212,-127 -525,-308 -892,-514 -622,-350 -1504,-870 -1553,-916 -13,-11 -23,-29 -23,-39 0,-9 -11,-51 -25,-92 -42,-125 -51,-278 -36,-629 21,-526 49,-908 73,-1007 28,-115 96,-194 195,-225 l 56,-18 -7,-96 c -7,-110 10,-586 23,-645 15,-64 52,-70 70,-13 10,33 26,175 36,327 6,78 -8,330 -20,391 -6,26 -6,26 62,25 58,-1 68,2 71,17 9,44 -66,87 -188,108 -179,30 -218,112 -255,545 -40,474 -51,1025 -22,1153 9,41 18,75 19,77 2,1 48,-20 102,-47 55,-26 170,-71 255,-99 144,-47 697,-190 735,-190 23,0 21,-7 -25,-61 -135,-161 -338,-527 -434,-784 -145,-385 -212,-782 -186,-1099 48,-582 290,-1009 789,-1395 189,-147 188,-146 217,-133 30,14 32,39 5,89 -24,46 -26,123 -5,242 25,144 84,332 104,331 3,0 26,-38 51,-83 89,-162 274,-315 475,-392 85,-33 288,-94 365,-110 19,-4 51,-19 70,-34 45,-35 74,-51 96,-51 14,0 15,2 3,18 -8,10 -30,41 -49,67 -19,27 -77,94 -129,149 -201,216 -297,351 -405,576 -77,160 -125,296 -160,451 -25,112 -47,289 -36,289 3,0 46,-16 95,-35 85,-34 911,-309 1168,-390 l 117,-37 v -426 c 1,-1341 26,-2494 80,-3662 55,-1185 81,-1555 155,-2187 3,-32 1,-43 -9,-43 -35,0 -2031,503 -2441,615 -253,69 -476,128 -496,131 -48,8 -58,30 -46,108 15,101 0,1043 -34,2176 -7,244 -9,632 -6,1060 8,854 -6,1228 -48,1270 -37,36 -40,9 -52,-583 -25,-1157 -17,-2041 27,-3337 6,-157 10,-385 10,-507 v -222 l 32,-36 c 41,-48 111,-82 222,-110 50,-13 240,-64 421,-113 329,-90 743,-195 1730,-437 527,-129 948,-238 1735,-450 554,-148 1117,-291 1381,-349 198,-44 548,-106 596,-106 96,0 -137,95 -492,200 -159,47 -817,230 -828,230 -1,0 -1,604 1,1342 3,1650 -8,3054 -25,3083 -11,19 -12,19 -23,-10 -6,-16 -20,-87 -30,-157 -39,-264 -43,-480 -36,-1971 5,-985 3,-1544 -5,-1830 -6,-227 -13,-414 -15,-416 -2,-2 -90,19 -196,48 -169,46 -957,256 -1170,313 l -78,20 v 73 c 0,40 -9,163 -20,273 -44,437 -61,747 -110,1982 -40,1009 -57,1700 -70,2750 -6,481 -15,1074 -20,1317 -11,509 -12,1036 -1,1373 10,300 14,312 119,395 157,125 305,233 552,403 140,97 336,234 435,306 184,132 197,139 370,202 446,162 873,418 1158,693 59,57 124,129 145,160 20,31 41,57 45,59 5,2 25,-23 46,-55 177,-274 565,-395 890,-279 24,9 47,16 51,16 8,0 134,-160 128,-164 -63,-40 -99,-67 -174,-132 -1033,-893 -1131,-979 -1424,-1252 -80,-75 -223,-212 -319,-305 l -175,-169 -12,-67 c -7,-36 -9,-68 -4,-71 5,-3 2,-50 -5,-105 -16,-119 -28,-249 -55,-606 -39,-519 -51,-729 -65,-1134 -8,-225 -20,-527 -26,-671 -7,-143 -10,-268 -6,-277 9,-25 32,-21 46,9 16,36 68,335 86,494 8,74 20,235 27,358 8,149 15,222 23,222 13,0 796,-187 1085,-260 372,-93 1425,-381 1457,-399 8,-4 -12,-50 -64,-146 -360,-669 -510,-1072 -578,-1555 -23,-160 -30,-439 -16,-585 71,-723 484,-1390 1106,-1783 137,-86 297,-172 320,-172 16,0 17,-10 11,-117 -11,-211 -17,-1682 -8,-1898 5,-115 8,-211 7,-213 -1,-1 -15,2 -31,8 -16,7 -243,68 -504,136 -1074,282 -1160,301 -1160,260 0,-21 60,-45 315,-129 417,-138 754,-222 1170,-292 110,-18 214,-39 230,-45 49,-19 101,-13 260,31 263,72 634,212 1185,449 1214,520 2236,1062 3134,1662 518,346 846,607 1173,932 105,105 227,225 270,266 54,52 82,87 91,115 24,73 25,304 3,725 -67,1289 -83,1992 -75,3435 6,1046 4,1238 -22,1715 l -7,116 44,18 c 83,34 93,41 116,88 13,26 28,78 33,115 5,37 16,118 24,178 29,206 40,542 27,793 -20,389 -61,746 -101,875 -17,53 -29,73 -80,121 -33,31 -80,66 -104,77 -25,11 -177,51 -338,89 -161,38 -444,105 -628,150 -184,45 -450,108 -590,140 -140,33 -341,79 -447,104 -234,55 -292,64 -303,46 -15,-24 1,-39 73,-69 110,-45 321,-108 792,-236 783,-212 1073,-281 1290,-306 130,-14 221,-53 172,-72 -7,-3 -132,-95 -278,-204 -323,-243 -487,-360 -869,-618 -162,-109 -333,-226 -380,-260 -47,-34 -90,-64 -97,-68 -8,-5 -18,5 -28,30 -35,84 -103,129 -318,209 -665,249 -1107,394 -1199,394 -21,0 -38,3 -38,8 1,4 26,27 57,52 92,73 369,347 455,450 208,248 306,450 355,730 25,138 24,566 -1,705 -50,283 -166,502 -377,714 -302,304 -684,492 -1134,557 -145,21 -463,24 -610,5 -473,-59 -854,-223 -1244,-535 -145,-116 -364,-322 -481,-450 -98,-108 -107,-116 -135,-111 -16,3 -151,26 -300,51 -322,53 -546,94 -1210,219 -275,52 -532,99 -571,106 l -70,11 -79,142 c -134,237 -764,1276 -887,1460 -194,290 -367,446 -638,575 -246,117 -463,161 -648,130 z m 6798,-1730 c 432,-51 807,-230 1104,-525 281,-281 378,-560 363,-1054 -10,-335 -63,-521 -213,-742 -189,-278 -597,-659 -937,-874 -320,-203 -622,-288 -1117,-313 -519,-27 -803,39 -1258,295 -226,128 -492,288 -577,349 -162,117 -229,188 -127,136 21,-11 77,-30 123,-43 75,-20 104,-23 269,-22 200,2 218,4 620,99 209,49 350,57 470,26 47,-11 114,-36 150,-54 36,-17 68,-33 73,-35 4,-2 7,3 7,11 0,23 -86,94 -154,127 -106,52 -173,63 -331,57 -104,-4 -184,-15 -310,-41 -238,-49 -279,-55 -402,-66 -109,-10 -271,-3 -256,10 4,4 33,15 63,25 30,10 170,62 310,117 1012,396 1698,600 2245,669 149,19 422,16 520,-5 141,-31 229,-80 276,-154 24,-39 29,-56 29,-111 -1,-124 -69,-240 -236,-401 -483,-465 -1226,-697 -1949,-609 -223,27 -454,100 -717,226 -143,69 -188,82 -188,55 0,-21 45,-63 127,-119 376,-257 886,-340 1493,-242 473,75 900,267 1255,563 291,242 402,483 313,678 -130,283 -630,345 -1398,172 -504,-114 -1031,-290 -1771,-594 -321,-132 -466,-182 -582,-200 -83,-14 -201,-9 -254,10 l -33,12 v 78 c 0,56 -4,81 -15,90 -27,22 -42,3 -59,-72 -43,-194 -181,-365 -371,-458 -116,-58 -189,-74 -325,-74 -96,1 -128,5 -195,27 -211,70 -356,220 -412,428 -11,43 -17,99 -16,169 3,372 233,608 573,587 222,-14 488,-122 681,-277 91,-73 103,-68 38,16 -108,140 -329,270 -557,326 -111,28 -329,30 -407,5 -27,-9 -50,-15 -51,-14 -1,1 -4,32 -7,69 -6,61 -4,68 16,81 12,8 78,63 147,122 68,60 226,189 350,289 124,99 248,202 277,229 l 52,49 285,-51 c 158,-28 351,-58 429,-68 l 144,-17 -95,-115 c -182,-221 -377,-498 -433,-616 -29,-60 -37,-105 -20,-105 6,0 125,138 267,308 349,418 499,586 715,797 281,275 486,431 728,554 375,190 813,263 1261,210 z m -4126,-738 c 193,-38 447,-86 563,-108 117,-21 212,-41 210,-44 -1,-3 -54,-41 -117,-84 -204,-139 -434,-316 -592,-458 -49,-44 -79,-64 -82,-55 -2,7 -13,49 -25,93 -36,131 -98,277 -210,500 -125,248 -114,225 -106,225 4,0 165,-31 359,-69 z m -3703,-1469 c 422,-213 775,-331 1234,-411 149,-27 168,-31 163,-36 -11,-12 -419,-109 -641,-154 -190,-38 -254,-48 -273,-40 -61,23 -986,252 -1149,284 -99,20 -184,37 -189,38 -5,2 54,38 130,82 163,92 427,252 487,294 23,17 47,30 53,31 7,0 90,-40 185,-88 z m 3348,-479 c -20,-37 -205,-211 -311,-293 -311,-241 -673,-437 -1082,-585 -185,-66 -800,-244 -1236,-356 -265,-68 -587,-194 -805,-316 -678,-377 -985,-860 -985,-1550 0,-507 206,-1045 531,-1387 l 71,-75 -84,30 c -291,104 -481,240 -584,418 -26,46 -58,88 -71,94 -30,13 -66,-11 -92,-61 -42,-83 -111,-386 -111,-489 0,-24 -4,-43 -8,-43 -15,0 -168,132 -276,238 -321,316 -485,658 -527,1102 -51,537 193,1293 582,1809 270,357 680,677 1132,882 60,27 188,72 285,99 96,28 179,53 182,55 21,13 355,92 615,145 528,108 782,179 931,260 70,38 71,38 140,29 122,-17 529,-23 694,-10 358,27 663,69 871,119 l 114,28 18,-60 c 16,-50 17,-63 6,-83 z m -4194,96 c 61,-22 846,-215 1079,-266 108,-23 125,-29 100,-35 -16,-4 -95,-23 -175,-43 -136,-32 -322,-85 -551,-157 -119,-37 -394,-172 -548,-268 -226,-142 -361,-250 -561,-448 -100,-98 -138,-130 -142,-118 -11,27 -64,46 -260,92 -270,63 -390,96 -558,153 -154,52 -293,111 -285,119 3,3 49,24 103,47 104,44 202,98 588,322 234,136 437,251 895,506 124,69 232,124 240,122 8,-2 42,-14 75,-26 z m 12690,-136 c 52,-401 79,-766 78,-1093 0,-339 -20,-547 -60,-646 l -27,-66 -81,-36 c -176,-79 -674,-345 -1440,-771 -60,-33 -111,-57 -112,-53 -1,4 -7,153 -13,332 -16,463 -49,1192 -56,1213 -4,12 4,22 27,35 17,9 84,53 148,98 64,44 249,170 411,280 162,110 350,239 417,287 240,171 533,408 638,516 49,51 51,48 70,-96 z m -6989,20 c 51,-82 152,-182 269,-268 175,-128 636,-403 842,-503 l 94,-45 79,-113 c 189,-267 436,-727 559,-1038 329,-835 358,-1954 69,-2703 -86,-222 -201,-426 -426,-749 -238,-342 -325,-496 -386,-679 -99,-301 -83,-657 47,-1047 81,-243 172,-423 310,-618 76,-106 300,-331 389,-390 37,-25 68,-48 68,-51 1,-20 -440,-98 -620,-109 -155,-9 -348,-44 -444,-80 -73,-28 -140,-87 -162,-146 -35,-92 -2,-219 99,-377 45,-69 80,-138 74,-143 -9,-9 -54,15 -107,58 -30,24 -120,96 -200,160 -253,202 -393,338 -530,518 -241,316 -385,641 -451,1015 -18,106 -23,168 -23,335 -1,289 32,513 119,817 106,367 261,701 690,1488 298,545 457,936 518,1270 29,160 31,521 4,690 -84,523 -300,1041 -660,1580 -158,237 -387,528 -546,697 l -91,95 68,43 c 101,65 210,180 257,272 22,43 43,78 47,78 4,0 24,-26 44,-57 z m 3729,-500 c 415,-131 621,-200 924,-309 405,-146 449,-166 474,-217 27,-54 35,-195 63,-1112 34,-1108 44,-2609 19,-2790 -11,-85 -19,-250 -25,-565 -24,-1180 -37,-1406 -130,-2375 -70,-719 -83,-905 -83,-1195 -1,-260 5,-310 38,-310 18,0 21,15 35,155 15,150 73,618 115,915 154,1100 177,1420 190,2655 5,380 11,600 21,685 22,197 18,939 -11,1890 l -7,205 238,135 c 228,129 346,197 837,483 120,70 266,153 324,184 l 106,56 -6,-29 c -9,-40 -24,-708 -37,-1684 -15,-1037 -4,-1732 45,-3005 18,-446 43,-960 54,-1095 l 8,-95 -156,-159 c -86,-87 -210,-208 -276,-268 -510,-468 -1386,-1057 -2340,-1573 -847,-458 -2087,-1024 -2895,-1320 -124,-46 -232,-86 -241,-89 -15,-6 -17,32 -25,391 -13,584 -9,1334 9,1773 9,212 20,456 23,543 4,86 7,157 8,157 0,0 47,9 104,20 56,11 134,20 172,20 38,0 131,11 207,25 328,60 503,123 511,184 3,19 -37,64 -205,235 -219,222 -275,287 -366,426 -145,224 -264,541 -303,802 -24,165 -16,388 20,522 52,198 142,365 387,716 230,329 386,604 459,806 21,59 24,62 78,84 112,46 1107,561 1502,778 l 145,80 7,-42 c 12,-75 29,-682 35,-1231 5,-458 3,-563 -11,-695 -9,-85 -21,-270 -26,-410 -12,-301 -30,-592 -70,-1165 -82,-1160 -115,-2096 -90,-2545 15,-289 19,-315 45,-315 18,0 21,9 27,80 4,44 12,235 18,425 16,512 55,1136 130,2095 47,593 68,925 80,1245 10,279 18,416 41,695 16,198 -10,1224 -47,1880 -9,149 -16,284 -16,300 -1,66 -39,739 -49,860 -22,278 -69,485 -139,609 -75,132 -232,233 -623,400 -673,287 -1291,482 -1466,462 l -56,-6 -30,47 c -16,27 -56,83 -87,126 -32,42 -56,77 -53,77 3,0 38,-9 78,-20 388,-108 1026,-82 1463,61 196,64 426,184 614,323 44,32 81,53 90,50 8,-3 65,-22 125,-41 z m -3887,-265 c 540,-720 832,-1315 932,-1903 26,-155 43,-373 34,-464 l -7,-73 -81,7 c -218,18 -485,77 -981,215 -390,109 -1631,446 -1880,510 -110,29 -201,53 -202,54 -1,1 23,24 55,50 31,26 147,132 257,235 279,262 514,474 770,696 332,288 474,413 653,579 155,143 282,277 282,297 0,5 2,9 4,9 3,0 76,-96 164,-212 z m -3139,-352 c -2,-1 -114,-79 -249,-171 -383,-263 -674,-480 -781,-581 l -35,-34 -300,74 c -164,41 -316,78 -336,81 -21,4 -38,10 -38,14 0,9 132,88 229,136 196,98 515,221 661,254 52,12 205,53 340,91 453,128 521,146 509,136 z m 5219,-231 c 320,-98 887,-286 1112,-370 230,-85 461,-199 440,-218 -3,-2 -84,-41 -180,-86 -210,-98 -532,-265 -881,-459 -141,-78 -261,-142 -267,-142 -7,0 -12,10 -12,23 0,31 -64,302 -101,427 -43,146 -136,379 -217,546 -58,117 -93,181 -200,368 -3,5 2,6 12,3 9,-4 141,-45 294,-92 z m -6803,-544 c 72,-23 198,-60 280,-82 121,-33 155,-46 177,-69 l 27,-28 -10,-153 c -5,-85 -12,-414 -16,-731 -4,-394 -9,-578 -17,-578 -5,0 -179,52 -386,114 -559,171 -907,266 -974,266 -13,0 -16,12 -16,70 0,163 38,385 92,539 42,121 128,283 203,382 71,95 230,253 323,322 l 62,46 63,-29 c 34,-15 121,-46 192,-69 z m 8482,-201 c 31,-67 58,-192 72,-325 12,-108 46,-723 57,-1005 l 6,-175 -298,-162 c -743,-402 -1069,-582 -1204,-663 -80,-48 -146,-86 -148,-85 -2,1 9,49 23,105 30,120 68,336 87,500 20,178 17,714 -6,920 -9,91 -21,184 -26,208 l -8,43 52,26 c 28,14 139,74 246,133 301,165 370,201 745,392 394,200 355,191 402,88 z m -5380,-599 c 323,-83 667,-168 763,-190 687,-159 1658,-376 1778,-398 40,-7 40,-11 8,-163 -69,-324 -187,-608 -472,-1136 l -114,-211 -163,49 c -632,193 -1359,389 -2062,559 -209,50 -384,95 -388,99 -5,4 3,234 18,511 15,277 28,622 28,766 1,145 5,263 9,263 3,0 271,-67 595,-149 z m 2727,-5823 c -3,-18 -13,-118 -22,-223 l -17,-190 -46,85 c -111,204 -105,289 24,339 68,26 67,26 61,-11 z"
         id="path3" /><path
         d="m 18378,20600 c -21,-13 -24,-40 -5,-40 28,0 176,-80 253,-137 44,-33 109,-93 145,-134 95,-109 164,-179 178,-179 19,0 24,28 11,61 -42,100 -178,259 -283,331 -120,82 -254,126 -299,98 z"
         id="path4" /><path
         d="m 16860,19884 c -79,-17 -256,-103 -370,-179 -189,-127 -417,-335 -581,-530 -98,-116 -115,-143 -101,-157 15,-15 28,-5 149,108 385,358 616,532 891,669 73,36 132,71 132,76 0,7 -45,32 -53,28 -1,0 -31,-7 -67,-15 z"
         id="path5" /><path
         d="m 12155,18204 c -226,-83 -413,-142 -670,-209 -350,-93 -534,-146 -805,-232 -220,-70 -295,-101 -295,-124 0,-39 69,-25 795,161 712,181 918,255 1048,377 61,58 37,67 -73,27 z"
         id="path6" /><path
         d="m 9454,17131 c -84,-60 -177,-196 -255,-372 -51,-117 -61,-147 -47,-155 16,-10 31,11 129,181 50,88 120,204 156,259 35,54 63,102 61,108 -2,5 -22,-4 -44,-21 z"
         id="path7" /><path
         d="m 15140,18143 c 0,-4 64,-70 143,-147 246,-242 408,-463 734,-998 166,-273 203,-328 223,-328 22,0 7,44 -64,188 -156,315 -336,607 -507,824 -157,198 -451,468 -511,468 -10,0 -18,-3 -18,-7 z"
         id="path8" /><path
         d="m 16914,14778 c -28,-53 -7,-158 32,-158 22,0 36,38 37,100 2,88 -37,120 -69,58 z"
         id="path9" /><path
         d="m 15845,13013 c -124,-169 -279,-588 -336,-908 -20,-112 -24,-162 -23,-370 0,-181 4,-268 18,-355 28,-183 86,-387 143,-507 16,-35 40,-43 50,-18 3,9 -16,122 -41,253 -63,319 -76,426 -76,632 0,338 61,612 251,1118 38,101 69,188 69,193 0,21 -22,6 -55,-38 z"
         id="path10" /><path
         d="m 21227,14209 c -9,-5 -24,-23 -32,-39 -51,-99 53,-176 137,-101 43,38 45,92 4,127 -29,25 -78,31 -109,13 z"
         id="path11" /><path
         d="m 18365,13565 c -30,-30 -33,-83 -6,-116 15,-18 27,-22 69,-21 84,2 120,36 100,95 -24,66 -116,90 -163,42 z"
         id="path12" /><path
         d="m 19510,12871 c -15,-30 -12,-124 10,-249 20,-121 24,-132 45,-132 29,0 30,52 4,275 -15,119 -33,153 -59,106 z"
         id="path13" /><path
         d="m 19751,11472 c -23,-43 -7,-383 20,-434 11,-21 12,-21 25,-3 10,14 14,54 14,149 -1,219 -27,348 -59,288 z"
         id="path14" /><path
         d="m 17902,8868 c -19,-19 -13,-106 11,-183 18,-56 27,-71 45,-73 20,-3 22,1 22,36 0,53 -29,204 -42,220 -13,15 -21,15 -36,0 z"
         id="path15" /><path
         d="m 16995,8055 c -47,-46 -19,-118 45,-118 66,0 95,82 44,122 -35,27 -59,26 -89,-4 z"
         id="path16" /><path
         d="m 11022,22167 c -29,-31 -28,-65 2,-78 59,-27 115,25 82,76 -21,32 -55,32 -84,2 z"
         id="path17" /><path
         d="m 14659,21711 c -39,-40 -40,-89 -1,-133 25,-27 36,-31 77,-31 41,0 52,4 77,31 39,45 38,84 -6,128 -46,46 -104,48 -147,5 z"
         id="path18" /><path
         d="m 20190,21390 c -30,-30 -27,-83 6,-109 54,-42 118,-13 118,54 0,66 -78,101 -124,55 z"
         id="path19" /><path
         d="m 21716,20959 c -54,-64 -15,-159 65,-159 57,0 89,34 89,95 0,61 -32,95 -89,95 -32,0 -44,-6 -65,-31 z"
         id="path20" /><path
         d="m 12390,20952 c 0,-26 60,-117 224,-337 260,-348 303,-417 521,-831 153,-289 189,-348 208,-341 20,6 8,52 -54,205 -193,471 -407,807 -763,1195 -64,70 -121,127 -127,127 -5,0 -9,-8 -9,-18 z"
         id="path21" /><path
         d="m 6313,20425 c -75,-32 -71,-143 7,-175 85,-35 191,56 146,125 -31,47 -104,71 -153,50 z"
         id="path22" /><path
         d="m 9915,20019 c 26,-90 82,-175 101,-156 9,8 -79,170 -95,175 -10,3 -11,-2 -6,-19 z"
         id="path23" /><path
         d="m 10387,19534 c -13,-14 26,-65 110,-144 111,-103 211,-170 310,-208 146,-56 184,-43 73,26 -37,23 -133,91 -212,149 -247,184 -263,194 -281,177 z"
         id="path24" /><path
         d="m 7591,19474 c -27,-35 -27,-65 2,-92 46,-44 117,-14 117,48 0,65 -79,94 -119,44 z"
         id="path25" /><path
         d="m 11581,18957 c -18,-23 17,-45 110,-68 316,-79 589,-87 703,-21 70,41 53,45 -299,74 -384,31 -497,34 -514,15 z"
         id="path26" /><path
         d="m 6016,18937 c -7,-12 -17,-63 -20,-113 -4,-51 -13,-118 -21,-150 -62,-242 -255,-386 -476,-355 -72,10 -89,8 -89,-9 0,-11 75,-35 166,-54 148,-31 281,-99 344,-175 17,-20 56,-85 86,-144 75,-146 98,-155 99,-39 0,59 6,79 46,162 25,53 60,112 78,132 36,42 140,98 181,98 33,0 69,25 55,38 -5,5 -37,17 -70,27 -165,47 -251,138 -295,311 -12,47 -20,110 -20,161 0,46 -4,92 -10,102 -15,30 -38,33 -54,8 z m 33,-392 c 26,-87 88,-157 197,-221 17,-10 17,-12 -11,-27 -53,-27 -106,-88 -141,-161 -19,-39 -34,-77 -34,-85 0,-8 -13,5 -28,30 -48,75 -137,142 -239,181 l -54,21 28,12 c 43,19 127,85 166,133 20,23 49,69 64,102 15,32 30,59 33,59 3,1 12,-19 19,-44 z"
         id="path27" /><path
         d="m 5054,16400 c -34,-13 -64,-59 -64,-97 0,-49 54,-103 103,-103 44,0 93,38 102,79 10,45 -18,99 -59,116 -40,17 -52,17 -82,5 z"
         id="path28" /><path
         d="m 6625,15527 c -37,-31 -45,-97 -16,-126 31,-31 67,-27 107,13 39,39 43,72 13,110 -26,33 -68,34 -104,3 z"
         id="path29" /><path
         d="m 7809,14643 c -20,-50 18,-314 50,-346 8,-8 16,-9 29,0 15,9 17,27 15,134 -2,148 -23,232 -60,237 -17,3 -26,-4 -34,-25 z"
         id="path30" /><path
         d="m 5756,14622 c -2,-4 -10,-45 -16,-92 -56,-397 -243,-622 -507,-608 -45,2 -67,-1 -70,-9 -5,-15 78,-54 177,-83 111,-33 220,-93 278,-153 29,-31 74,-100 111,-170 35,-64 67,-117 71,-117 18,0 28,37 32,120 7,149 72,251 200,315 74,37 108,41 200,26 55,-9 81,1 58,22 -8,7 -60,33 -115,57 -128,55 -189,94 -247,159 -74,82 -100,166 -117,386 -5,66 -13,128 -16,138 -7,17 -30,23 -39,9 z m 18,-409 c 16,-103 105,-223 206,-281 l 52,-30 -54,-24 c -95,-44 -147,-102 -193,-214 l -21,-52 -46,62 c -52,72 -148,141 -246,176 l -63,23 63,31 c 96,48 188,146 240,256 24,49 46,89 49,90 4,0 9,-17 13,-37 z"
         id="path31" /><path
         d="m 7873,14164 c -13,-31 -8,-236 6,-262 34,-63 59,31 42,162 -11,94 -33,139 -48,100 z"
         id="path32" /><path
         d="m 11836,13954 c -9,-8 -16,-28 -16,-44 0,-38 24,-60 65,-60 36,0 65,28 65,62 0,47 -80,77 -114,42 z"
         id="path33" /><path
         d="m 9711,12807 c -37,-18 -48,-63 -24,-96 39,-51 113,-30 113,32 0,57 -43,88 -89,64 z"
         id="path34" /><path
         d="m 12973,12774 c -35,-54 -28,-588 8,-668 13,-29 40,-34 58,-12 22,26 31,192 20,361 -20,326 -38,392 -86,319 z"
         id="path35" /><path
         d="m 10215,12530 c -37,-72 -4,-136 67,-131 28,2 48,31 48,70 0,82 -82,125 -115,61 z"
         id="path36" /><path
         d="m 13483,10372 c -30,-4 -63,-48 -63,-83 0,-15 11,-40 24,-55 70,-82 193,24 126,108 -20,26 -48,36 -87,30 z"
         id="path37" /><path
         d="m 6955,7610 c 3,-5 8,-10 11,-10 2,0 4,5 4,10 0,6 -5,10 -11,10 -5,0 -7,-4 -4,-10 z"
         id="path38" /></g></g></svg>
