<?xml version="1.0" encoding="UTF-8" standalone="no"?>
<!-- Created with Inkscape (http://www.inkscape.org/) -->

<svg
   width="135.21674mm"
   height="135.17651mm"
   viewBox="0 0 135.21673 135.17651"
   version="1.1"
   id="svg1"
   xml:space="preserve"
   xmlns:inkscape="http://www.inkscape.org/namespaces/inkscape"
   xmlns:sodipodi="http://sodipodi.sourceforge.net/DTD/sodipodi-0.dtd"
   xmlns="http://www.w3.org/2000/svg"
   xmlns:svg="http://www.w3.org/2000/svg"><sodipodi:namedview
     id="namedview1"
     pagecolor="#ffffff"
     bordercolor="#000000"
     borderopacity="0.25"
     inkscape:showpageshadow="2"
     inkscape:pageopacity="0.0"
     inkscape:pagecheckerboard="0"
     inkscape:deskcolor="#d1d1d1"
     inkscape:document-units="mm"><inkscape:page
       x="-5.7757483e-29"
       y="0"
       width="135.21674"
       height="135.17651"
       id="page2"
       margin="0"
       bleed="0" /></sodipodi:namedview><defs
     id="defs1" /><g
     inkscape:label="Capa 1"
     inkscape:groupmode="layer"
     id="layer1"
     transform="translate(316.26662,8.0027173)"><path
       style="fill:#ffffff;fill-opacity:1"
       d="m -288.4532,126.90395 c -8.27083,-0.86434 -13.7014,-3.31833 -18.9432,-8.56013 -5.36298,-5.36298 -7.70003,-10.64616 -8.5859,-19.409434 -0.37909,-3.75007 -0.37909,-74.90739 0,-78.657467 0.88587,-8.763272 3.22292,-14.046451 8.5859,-19.40942395 5.36297,-5.36297405 10.64615,-7.70002505 19.40942,-8.58589405 3.75008,-0.379091 74.9074,-0.379091 78.65747,0 8.76327,0.885869 14.04645,3.22292 19.40943,8.58589405 5.36297,5.36297295 7.70002,10.64615195 8.58589,19.40942395 0.37909,3.750077 0.37909,74.907397 0,78.657467 -0.88587,8.763274 -3.22292,14.046454 -8.58589,19.409434 -5.36298,5.36297 -10.64616,7.70002 -19.40943,8.58589 -3.3743,0.34111 -75.83893,0.31751 -79.12369,-0.0258 z m 44.95433,-33.690964 v -3.30204 l -18.45468,-0.0714 -18.45469,-0.0714 -0.82728,-0.5901 c -1.79883,-1.28312 -1.68626,1.01596 -1.68626,-34.441027 V 22.696277 h -3.17891 -3.17891 l 0.07,34.065103 0.0701,34.065106 0.58267,1.08914 c 1.30071,2.43137 3.23156,3.93275 5.56165,4.32459 0.69521,0.11691 9.86628,0.22657 20.38016,0.24369 l 19.11614,0.0311 z m 8.93558,-18.72452 c -0.0792,-24.205161 0.0219,-22.798416 -1.69707,-23.614138 -0.6866,-0.325812 -2.28454,-0.396798 -8.93214,-0.396798 h -8.09595 v 3.307291 3.307292 h 5.51013 5.51013 l 0.64143,0.682677 0.64143,0.682676 0.0713,19.02878 0.0713,19.02878 h 3.17577 3.17578 z m 9.05609,-4.08365 c 0,-25.476025 -0.0127,-26.136484 -0.52355,-27.191718 -1.00008,-2.065894 -0.48645,-1.995984 -14.66467,-1.995984 h -12.59303 v 3.307291 3.307292 h 9.80698 c 6.51905,0 9.98606,0.09584 10.34114,0.28588 1.29403,0.692543 1.28313,0.478032 1.28313,25.237909 v 23.15954 h 3.175 3.175 z m 8.93396,-4.9239 c -0.0667,-29.399243 -0.0956,-31.072487 -0.54782,-31.762628 -0.26257,-0.400686 -0.85788,-0.960516 -1.32291,-1.244066 -0.81487,-0.496855 -1.46184,-0.515582 -17.845,-0.516535 l -16.99948,-9.89e-4 v 3.164014 3.164014 l 13.96875,0.07713 c 15.36666,0.08485 14.74151,0.01694 15.85933,1.722729 0.43726,0.667243 0.47118,2.470236 0.53759,28.571311 l 0.0709,27.85913 h 3.17454 3.17454 z m 8.99644,-2.8987 -0.071,-33.93281 -0.74246,-1.511945 c -0.41417,-0.843421 -1.26883,-1.975274 -1.9329,-2.559817 -2.2213,-1.955259 -1.30608,-1.881363 -23.30094,-1.881363 h -19.66432 v 3.167978 3.167977 l 18.1901,0.07317 c 17.70743,0.07123 18.21468,0.08737 19.11615,0.608388 0.54841,0.316964 1.1688,1.014162 1.52135,1.709709 l 0.59531,1.174488 v 31.958515 31.95852 h 3.17988 3.17988 z m -35.92207,21.23281 v -3.175 h -13.76683 c -15.19609,0 -15.12117,0.008 -16.1243,-1.63772 -0.52658,-0.8637 -0.53399,-1.25929 -0.53496,-28.590922 l -9.9e-4,-27.715103 h -3.175 -3.175 v 30.700163 c 0,33.800002 -0.0889,32.004922 1.63773,33.057632 0.85459,0.52103 1.29104,0.534 18.00758,0.53496 l 17.13177,9.9e-4 z m 0,-9.26041 v -3.175 h -9.67043 c -10.52307,0 -10.96463,-0.057 -11.5076,-1.48511 -0.15426,-0.40574 -0.25322,-9.75797 -0.25322,-23.932117 V 22.696281 h -3.17874 -3.17874 l 0.0699,26.611 0.0699,26.610995 0.9883,0.90567 0.9883,0.90567 h 12.83618 12.83617 z m 0,-9.24126 v -3.15585 l -5.57961,-0.0853 -5.57962,-0.0853 -0.63809,-0.74236 -0.63809,-0.74236 V 41.599235 22.696281 h -3.17946 -3.17946 l 0.0706,22.114474 0.0706,22.114471 0.86407,0.77199 0.86407,0.77198 h 8.46249 8.46249 z"
       id="path1" /></g></svg>
